<svg version="1.1" id="Layer_1" xmlns="http://www.w3.org/2000/svg" xmlns:xlink="http://www.w3.org/1999/xlink" x="0px" y="0px" viewBox="0 0 1440 579" style="enable-background:new 0 0 1440 579;" xml:space="preserve">
<style type="text/css">
	.st0{opacity:0.912;clip-path:url(#SVGID_2_);}
	.st1{fill:#264899;}
	.st2{fill:#D5D5D5;}
	.st3{fill:#858585;}
	.st4{fill:#212121;}
	.st5{fill:#B7B7B7;}
	.st6{fill:#535353;}
	.st7{fill:#E5E5E5;}
	.st8{fill:#B3B3B3;}
	.st9{fill:#D2D2D2;}
	.st10{fill:#949494;}
	.st11{fill:#CBCBCB;}
	.st12{fill:url(#Path_282_1_);}
	.st13{fill:url(#Path_782_1_);}
	.st14{fill:url(#Path_783_1_);}
	.st15{fill:url(#Path_784_1_);}
	.st16{fill:url(#Path_785_1_);}
	.st17{fill:url(#Path_786_1_);}
	.st18{fill:url(#Rectangle_475_1_);}
	.st19{fill:url(#Rectangle_476_1_);}
	.st20{fill:url(#Rectangle_477_1_);}
	.st21{fill:url(#Rectangle_478_1_);}
	.st22{fill:url(#Path_787_1_);}
	.st23{fill:url(#Rectangle_479_1_);}
	.st24{fill:url(#Path_788_1_);}
	.st25{fill:url(#Rectangle_480_1_);}
	.st26{fill:url(#Path_789_1_);}
	.st27{fill:url(#Path_790_1_);}
	.st28{fill:url(#Path_791_1_);}
	.st29{fill:url(#Rectangle_481_1_);}
	.st30{fill:url(#Rectangle_482_1_);}
	.st31{fill:url(#Path_793_1_);}
	.st32{fill:url(#Rectangle_483_1_);}
	.st33{fill:#BCBCBC;}
	.st34{fill:none;stroke:#CBCBCB;stroke-width:4;stroke-linejoin:round;stroke-miterlimit:10;}
	.st35{fill:url(#Path_282-2_1_);}
	.st36{fill:url(#Ellipse_53_1_);}
	.st37{fill:url(#Path_795_1_);}
	.st38{fill:url(#Path_796_1_);}
	.st39{opacity:0.912;clip-path:url(#SVGID_4_);}
	.st40{fill:#FFFFFF;}
	.st41{fill:#DDDDDD;}
	.st42{fill:#C8C8C8;}
	.st43{fill:#E8E8E8;}
	.st44{fill:#EAEAEA;}
	.st45{fill:#F1F1F1;}
	.st46{fill:#E3E3E3;}
	.st47{opacity:0.912;clip-path:url(#SVGID_6_);}
</style>
<g>
	<defs>
		<rect id="SVGID_3_" width="302" height="579"/>
	</defs>
	<clipPath id="SVGID_2_">
		<use xlink:href="#SVGID_3_" style="overflow:visible;"/>
	</clipPath>
	<g id="Mask_Group_2" transform="translate(-68 -8)" class="st0">
		<g id="Group_124" transform="translate(-242 618)">
			<g id="Group_42">
				<g id="Group_16" transform="translate(339.259 282.715)">
					<path id="Path_309" class="st40" d="M44.2-610l44.2,26.5v53l-44.2,26.5L0-530.4v-53L44.2-610z M87.3-582.8l-43.1-25.8       L1.2-582.8v51.7l43.1,25.8l43.1-25.8L87.3-582.8z"/>
				</g>
				<g id="Group_17" transform="translate(382.907 308.904)">
					<path id="Path_310" class="st42" d="M44.2-610l44.2,26.5v53l-44.2,26.5L0-530.4v-53L44.2-610z M87.3-582.8l-43.1-25.8       L1.2-582.8v51.7l43.1,25.8l43.1-25.8V-582.8z"/>
				</g>
				<g id="Group_18" transform="translate(382.907 256.526)">
					<path id="Path_311" class="st41" d="M44.2-610l44.2,26.5v53l-44.2,26.5L0-530.4v-53L44.2-610z M87.3-582.8l-43.1-25.8       L1.2-582.8v51.7l43.1,25.8l43.1-25.8L87.3-582.8z"/>
				</g>
				<g id="Group_23" transform="translate(339.259 20.85)">
					<path id="Path_316" class="st43" d="M44.2-610l44.2,26.5v53l-44.2,26.5L0-530.4v-53L44.2-610z M87.3-582.8l-43.1-25.8       L1.2-582.8v51.7l43.1,25.8l43.1-25.8L87.3-582.8L87.3-582.8z"/>
				</g>
				<g id="Group_24" transform="translate(295.617 47.039)">
					<path id="Path_317" class="st42" d="M44.2-610l44.2,26.5v53l-44.2,26.5L0-530.4v-53L44.2-610z M87.3-582.8l-43.1-25.8       L1.2-582.8v51.7l43.1,25.8l43.1-25.8V-582.8z"/>
				</g>
				<g id="Group_32" transform="translate(251.974 125.599)">
					<path id="Path_325" class="st43" d="M44.2-610l44.2,26.5v53l-44.2,26.5L0-530.4v-53L44.2-610z M87.3-582.8l-43.1-25.8       L1.2-582.8v51.7l43.1,25.8l43.1-25.8L87.3-582.8z"/>
				</g>
				<g id="Group_34" transform="translate(295.617 99.411)">
					<path id="Path_327" class="st41" d="M44.2-610l44.2,26.5v53l-44.2,26.5L0-530.4v-53L44.2-610z M87.3-582.8l-43.1-25.8       L1.2-582.8v51.7l43.1,25.8l43.1-25.8V-582.8z"/>
				</g>
				<g id="Group_35" transform="translate(339.259 125.599)">
					<path id="Path_328" class="st40" d="M44.2-610l44.2,26.5v53l-44.2,26.5L0-530.4v-53L44.2-610z M87.3-582.8l-43.1-25.8       L1.2-582.8v51.7l43.1,25.8l43.1-25.8L87.3-582.8z"/>
				</g>
				<g id="Group_36" transform="translate(339.259 73.228)">
					<path id="Path_329" class="st40" d="M44.2-610l44.2,26.5v53l-44.2,26.5L0-530.4v-53L44.2-610z M87.3-582.8l-43.1-25.8       L1.2-582.8v51.7l43.1,25.8l43.1-25.8V-582.8z"/>
				</g>
				<g id="Group_37" transform="translate(382.907 99.411)">
					<path id="Path_330" class="st41" d="M44.2-610l44.2,26.5v53l-44.2,26.5L0-530.4v-53L44.2-610z M87.3-582.8l-43.1-25.8       L1.2-582.8v51.7l43.1,25.8l43.1-25.8V-582.8z"/>
				</g>
				<g id="Group_38" transform="translate(426.549 177.971)">
					<path id="Path_331" class="st40" d="M44.2-610l44.2,26.5v53l-44.2,26.5L0-530.4v-53L44.2-610z M87.3-582.8l-43.1-25.8       L1.2-582.8v51.7l43.1,25.8l43.1-25.8V-582.8z"/>
				</g>
				<g id="Group_39" transform="translate(295.617 204.155)">
					<path id="Path_332" class="st42" d="M44.2-610l44.2,26.5v53l-44.2,26.5L0-530.4v-53L44.2-610z M87.3-582.8l-43.1-25.8       L1.2-582.8v51.7l43.1,25.8l43.1-25.8V-582.8z"/>
				</g>
				<g id="Group_40" transform="translate(251.974 177.971)">
					<path id="Path_333" class="st9" d="M44.2-610l44.2,26.5v53l-44.2,26.5L0-530.4v-53L44.2-610z M87.3-582.8l-43.1-25.8L1.2-582.8       v51.7l43.1,25.8l43.1-25.8V-582.8z"/>
				</g>
				<path id="Path_334" d="M380.9-274.2c0,1.4,1.2,2.6,2.6,2.6c1.4,0,2.6-1.2,2.6-2.6c0-1.4-1.2-2.6-2.6-2.6c0,0,0,0,0,0      C382-276.8,380.9-275.7,380.9-274.2z"/>
				<path id="Path_335" class="st41" d="M467.3-326.6c0,1.9,1.6,3.5,3.5,3.5c1.9,0,3.5-1.6,3.5-3.5c0-1.9-1.6-3.5-3.5-3.5      c0,0,0,0,0,0C468.8-330.1,467.3-328.5,467.3-326.6C467.3-326.6,467.3-326.6,467.3-326.6z"/>
				<path id="Path_336" d="M381.2-431.3c0,1.3,1,2.3,2.3,2.3c1.3,0,2.3-1,2.3-2.3c0-1.3-1-2.3-2.3-2.3      C382.2-433.7,381.2-432.6,381.2-431.3z"/>
				<path id="Path_350" class="st40" d="M423.4-509.9c0,2.1,1.7,3.8,3.8,3.8s3.8-1.7,3.8-3.8c0-2.1-1.7-3.8-3.8-3.8l0,0      C425-513.7,423.4-512,423.4-509.9C423.4-509.9,423.4-509.9,423.4-509.9z"/>
				<path id="Path_351" class="st41" d="M468.7-588.5c0,1.1,0.9,2,2,2c1.1,0,2-0.9,2-2s-0.9-2-2-2      C469.7-590.5,468.7-589.6,468.7-588.5C468.7-588.5,468.7-588.5,468.7-588.5z"/>
				<path id="Path_353" class="st41" d="M337.5-509.9c0,1.3,1,2.3,2.3,2.3c1.3,0,2.3-1,2.3-2.3s-1-2.3-2.3-2.3      C338.6-512.2,337.5-511.2,337.5-509.9C337.5-509.9,337.5-509.9,337.5-509.9z"/>
				<path id="Path_356" d="M339-195.7c0,0.5,0.4,0.9,0.9,0.9s0.9-0.4,0.9-0.9c0-0.5-0.4-0.9-0.9-0.9S339-196.2,339-195.7L339-195.7z      "/>
			</g>
			<g id="Group_69" transform="translate(0 323.822)">
				<g id="Group_43" transform="translate(272.14 85.348)">
					<path id="Path_365" class="st2" d="M0-546.2v-42.5L35.5-610L71-588.7v42.5l-35.5,21.3L0-546.2z M70-588.2l-34.5-20.7L0.9-588.2       v41.5L35.5-526L70-546.7L70-588.2z"/>
				</g>
				<g id="Group_44" transform="translate(307.155 64.343)">
					<path id="Path_366" class="st4" d="M0-546.2v-42.5L35.5-610l35.5,21.3v42.5l-35.5,21.3L0-546.2z M70-588.2l-34.5-20.7       L0.9-588.2v41.5L35.5-526L70-546.7L70-588.2z"/>
				</g>
				<g id="Group_45" transform="translate(307.155 106.354)">
					<path id="Path_367" class="st3" d="M0-546.2v-42.5L35.5-610l35.5,21.3v42.5l-35.5,21.3L0-546.2z M70-588.2l-34.5-20.7       L0.9-588.2v41.5L35.5-526L70-546.7L70-588.2z"/>
				</g>
				<g id="Group_62" transform="translate(272.14 211.381)">
					<path id="Path_384" class="st2" d="M0-546.2v-42.5L35.5-610L71-588.7v42.5l-35.5,21.3L0-546.2z M70-588.2l-34.5-20.7L0.9-588.2       v41.5L35.5-526L70-546.7V-588.2z"/>
				</g>
				<g id="Group_63" transform="translate(272.14 253.392)">
					<path id="Path_385" class="st2" d="M0-546.2v-42.5L35.5-610L71-588.7v42.5l-35.5,21.3L0-546.2z M70-588.2l-34.5-20.7L0.9-588.2       v41.5L35.5-526L70-546.7L70-588.2z"/>
				</g>
				<g id="Group_64" transform="translate(307.155 232.386)">
					<path id="Path_386" class="st3" d="M0-546.2v-42.5L35.5-610l35.5,21.3v42.5l-35.5,21.3L0-546.2z M70-588.2l-34.5-20.7       L0.9-588.2v41.5L35.5-526L70-546.7L70-588.2z"/>
				</g>
				<g id="Group_65" transform="translate(342.164 169.37)">
					<path id="Path_387" class="st2" d="M0-546.2v-42.5L35.5-610l35.5,21.3v42.5l-35.5,21.3L0-546.2z M70-588.2l-34.5-20.7       L0.9-588.2v41.5L35.5-526L70-546.7V-588.2z"/>
				</g>
				<path id="Path_391" class="st3" d="M374.8-440.1c0-1.5,1.3-2.8,2.8-2.8c1.5,0,2.8,1.3,2.8,2.8c0,1.5-1.3,2.8-2.8,2.8l0,0      C376.1-437.3,374.8-438.5,374.8-440.1z"/>
			</g>
			<g id="Group_96">
				<g id="Group_70" transform="translate(253.044 210.873)">
					<path id="Path_421" class="st40" d="M33-610l33,19.8v39.6l-33,19.8L0-550.7v-39.6L33-610z M65.1-589.7L33-609L0.9-589.7v38.6       L33-531.9l32.1-19.3V-589.7z"/>
				</g>
				<g id="Group_71" transform="translate(285.598 230.402)">
					<path id="Path_422" class="st41" d="M33-610l33,19.8v39.6l-33,19.8L0-550.7v-39.6L33-610z M65.1-589.7L33-609L0.9-589.7v38.6       L33-531.9l32.1-19.3L65.1-589.7z"/>
				</g>
				<g id="Group_72" transform="translate(285.598 191.338)">
					<path id="Path_423" class="st44" d="M33-610l33,19.8v39.6l-33,19.8L0-550.7v-39.6L33-610z M65.1-589.7L33-609L0.9-589.7v38.6       L33-531.9l32.1-19.3L65.1-589.7z"/>
				</g>
				<g id="Group_77" transform="translate(253.044 15.555)">
					<path id="Path_428" class="st45" d="M33-610l33,19.8v39.6l-33,19.8L0-550.7v-39.6L33-610z M65.1-589.7L33-609L0.9-589.7v38.6       L33-531.9l32.1-19.3L65.1-589.7L65.1-589.7z"/>
				</g>
				<g id="Group_89" transform="translate(253.044 93.682)">
					<path id="Path_440" class="st40" d="M33-610l33,19.8v39.6l-33,19.8L0-550.7v-39.6L33-610z M65.1-589.7L33-609L0.9-589.7v38.6       L33-531.9l32.1-19.3V-589.7z"/>
				</g>
				<g id="Group_90" transform="translate(253.044 54.618)">
					<path id="Path_441" class="st40" d="M33-610l33,19.8v39.6l-33,19.8L0-550.7v-39.6L33-610z M65.1-589.7L33-609L0.9-589.7v38.6       L33-531.9l32.1-19.3V-589.7z"/>
				</g>
				<g id="Group_91" transform="translate(285.598 74.148)">
					<path id="Path_442" class="st44" d="M33-610l33,19.8v39.6l-33,19.8L0-550.7v-39.6L33-610z M65.1-589.7L33-609L0.9-589.7v38.6       L33-531.9l32.1-19.3L65.1-589.7z"/>
				</g>
				<g id="Group_92" transform="translate(318.152 132.746)">
					<path id="Path_443" class="st40" d="M33-610l33,19.8v39.6l-33,19.8L0-550.7v-39.6L33-610z M65.1-589.7L33-609L0.9-589.7v38.6       L33-531.9l32.1-19.3V-589.7z"/>
				</g>
				<path id="Path_447" class="st44" d="M348.5-398.6c0,1.4,1.2,2.6,2.6,2.6c1.4,0,2.6-1.2,2.6-2.6c0-1.4-1.2-2.6-2.6-2.6l0,0      C349.7-401.2,348.5-400.1,348.5-398.6z"/>
				<path id="Path_462" class="st40" d="M315.8-535.3c0,1.6,1.3,2.8,2.8,2.8c1.6,0,2.8-1.3,2.8-2.8s-1.3-2.8-2.8-2.8l0,0      C317-538.2,315.8-536.9,315.8-535.3z"/>
				<path id="Path_463" class="st44" d="M349.6-593.9c0,0.8,0.7,1.5,1.5,1.5s1.5-0.7,1.5-1.5s-0.7-1.5-1.5-1.5l0,0      C350.3-595.5,349.6-594.8,349.6-593.9C349.6-593.9,349.6-593.9,349.6-593.9z"/>
			</g>
		</g>
	</g>
</g>
<g>
	<defs>
		<rect id="SVGID_5_" x="1273" width="167" height="586"/>
	</defs>
	<clipPath id="SVGID_4_">
		<use xlink:href="#SVGID_5_" style="overflow:visible;"/>
	</clipPath>
	<g id="Mask_Group_3" transform="translate(50 -8)" class="st39">
		<g id="Group_233" transform="translate(1200.017 618)">
			<g id="Group_151" transform="translate(0 222.383)">
				<g id="Group_125" transform="translate(85.947 104.768)">
					<path id="Path_533" class="st40" d="M43.5-505.5L0-531.7v-52.2L43.5-610l43.5,26.1v52.2L43.5-505.5z M1.1-532.3l42.4,25.4       l42.4-25.4v-50.9l-42.4-25.4L1.1-583.2L1.1-532.3L1.1-532.3z"/>
				</g>
				<g id="Group_126" transform="translate(42.973 78.979)">
					<path id="Path_534" class="st42" d="M43.5-505.5L0-531.7v-52.2L43.5-610l43.5,26.1v52.2L43.5-505.5z M1.1-532.3l42.4,25.4       l42.4-25.4v-50.9l-42.4-25.4L1.1-583.2L1.1-532.3z"/>
				</g>
				<g id="Group_127" transform="translate(42.973 130.544)">
					<path id="Path_535" class="st41" d="M43.5-505.5L0-531.7v-52.2L43.5-610l43.5,26.1v52.2L43.5-505.5z M1.1-532.3l42.4,25.4       l42.4-25.4v-50.9l-42.4-25.4L1.1-583.2V-532.3z"/>
				</g>
				<g id="Group_133" transform="translate(128.92 336.826)">
					<path id="Path_541" class="st42" d="M43.5-505.5L0-531.7v-52.2L43.5-610l43.5,26.1v52.2L43.5-505.5z M1.1-532.3l42.4,25.4       l42.4-25.4v-50.9l-42.4-25.4L1.1-583.2V-532.3L1.1-532.3z"/>
				</g>
				<g id="Group_141" transform="translate(171.901 259.478)">
					<path id="Path_549" class="st43" d="M43.5-505.5L0-531.7v-52.2L43.5-610l43.5,26.1v52.2L43.5-505.5z M1.1-532.3l42.4,25.4       l42.4-25.4v-50.9l-42.4-25.4L1.1-583.2V-532.3z"/>
				</g>
				<g id="Group_143" transform="translate(128.92 285.261)">
					<path id="Path_551" class="st41" d="M43.5-505.5L0-531.7v-52.2L43.5-610l43.5,26.1v52.2L43.5-505.5z M1.1-532.3l42.4,25.4       l42.4-25.4v-50.9l-42.4-25.4L1.1-583.2V-532.3L1.1-532.3z"/>
				</g>
				<g id="Group_144" transform="translate(85.947 259.471)">
					<path id="Path_552" class="st40" d="M43.5-505.5L0-531.7v-52.2L43.5-610l43.5,26.1v52.2L43.5-505.5z M1.1-532.3l42.4,25.4       l42.4-25.4v-50.9l-42.4-25.4L1.1-583.2L1.1-532.3L1.1-532.3z"/>
				</g>
				<g id="Group_145" transform="translate(85.947 311.043)">
					<path id="Path_553" class="st40" d="M43.5-505.5L0-531.7v-52.2L43.5-610l43.5,26.1v52.2L43.5-505.5z M1.1-532.3l42.4,25.4       l42.4-25.4v-50.9l-42.4-25.4L1.1-583.2L1.1-532.3L1.1-532.3z"/>
				</g>
				<g id="Group_146" transform="translate(42.973 285.261)">
					<path id="Path_554" class="st41" d="M43.5-505.5L0-531.7v-52.2L43.5-610l43.5,26.1v52.2L43.5-505.5z M1.1-532.3l42.4,25.4       l42.4-25.4v-50.9l-42.4-25.4L1.1-583.2V-532.3z"/>
				</g>
				<g id="Group_147" transform="translate(0 207.906)">
					<path id="Path_555" class="st40" d="M43.5-505.5L0-531.7v-52.2L43.5-610l43.6,26.1v52.2L43.5-505.5z M1.1-532.3l42.4,25.4       l42.4-25.4v-50.9l-42.4-25.4L1.1-583.2L1.1-532.3z"/>
				</g>
				<g id="Group_148" transform="translate(128.92 182.123)">
					<path id="Path_556" class="st42" d="M43.5-505.5L0-531.7v-52.2L43.5-610l43.5,26.1v52.2L43.5-505.5z M1.1-532.3l42.4,25.4       l42.4-25.4v-50.9l-42.4-25.4L1.1-583.2V-532.3L1.1-532.3z"/>
				</g>
				<g id="Group_149" transform="translate(171.901 207.899)">
					<path id="Path_557" class="st9" d="M43.5-505.5L0-531.6v-52.2L43.5-610l43.5,26.1v52.2L43.5-505.5z M1.1-532.3l42.4,25.4       l42.4-25.4v-50.9l-42.4-25.4L1.1-583.2V-532.3z"/>
				</g>
				<path id="Path_558" d="M132.1-453c0-1.4-1.2-2.6-2.6-2.6s-2.6,1.2-2.6,2.6c0,1.4,1.2,2.6,2.6,2.6l0,0      C130.9-450.4,132.1-451.6,132.1-453C132.1-453,132.1-453,132.1-453z"/>
				<path id="Path_559" class="st41" d="M47-401.4c0-1.9-1.5-3.4-3.4-3.4s-3.4,1.5-3.4,3.4c0,1.9,1.5,3.4,3.4,3.4      C45.4-398,47-399.5,47-401.4z"/>
				<path id="Path_560" d="M131.8-298.3c0-1.3-1-2.3-2.3-2.3c-1.3,0-2.3,1-2.3,2.3c0,1.3,1,2.3,2.3,2.3c0,0,0,0,0,0      C130.8-296,131.8-297,131.8-298.3C131.8-298.3,131.8-298.3,131.8-298.3z"/>
				<path id="Path_580" d="M173.3-530.4c0-0.5-0.4-0.9-0.9-0.9c-0.5,0-0.9,0.4-0.9,0.9s0.4,0.9,0.9,0.9c0,0,0,0,0,0      C172.9-529.5,173.3-529.9,173.3-530.4z"/>
			</g>
			<g id="Group_178" transform="translate(100.328)">
				<g id="Group_152" transform="translate(68.941 223.308)">
					<path id="Path_589" class="st2" d="M69.9-589v41.9l-34.9,21L0-547.2V-589l34.9-21L69.9-589z M0.9-547.7l34,20.4l34-20.4v-40.8       l-34-20.4l-34,20.4L0.9-547.7L0.9-547.7z"/>
				</g>
				<g id="Group_153" transform="translate(34.471 243.986)">
					<path id="Path_590" class="st4" d="M69.9-589v41.9l-34.9,21L0-547.1V-589l34.9-21L69.9-589z M0.9-547.7l34,20.4l34-20.4v-40.8       l-34-20.4l-34,20.4L0.9-547.7z"/>
				</g>
				<g id="Group_154" transform="translate(34.471 202.623)">
					<path id="Path_591" class="st3" d="M69.9-589v41.9l-34.9,21L0-547.2V-589l34.9-21L69.9-589z M0.9-547.7l34,20.4l34-20.4v-40.9       l-34-20.4l-34,20.4L0.9-547.7z"/>
				</g>
				<g id="Group_159" transform="translate(68.941 16.471)">
					<path id="Path_596" class="st5" d="M69.9-589v41.9l-34.9,21L0-547.2V-589l34.9-21L69.9-589z M0.9-547.7l34,20.4l34-20.4v-40.9       l-34-20.4l-34,20.4L0.9-547.7z"/>
				</g>
				<g id="Group_171" transform="translate(68.941 99.198)">
					<path id="Path_608" class="st2" d="M69.9-589v41.9l-34.9,21L0-547.1V-589l34.9-21L69.9-589z M0.9-547.7l34,20.4l34-20.4v-40.8       l-34-20.4l-34,20.4L0.9-547.7L0.9-547.7z"/>
				</g>
				<g id="Group_172" transform="translate(68.941 57.848)">
					<path id="Path_609" class="st2" d="M69.9-589v41.9l-34.9,21L0-547.2V-589l34.9-21L69.9-589z M0.9-547.7l34,20.4l34-20.4v-40.8       l-34-20.4l-34,20.4L0.9-547.7L0.9-547.7z"/>
				</g>
				<g id="Group_173" transform="translate(34.471 78.52)">
					<path id="Path_610" class="st3" d="M69.9-589v41.9l-34.9,21L0-547.2V-589l34.9-21L69.9-589z M0.9-547.7l34,20.4l34-20.4v-40.8       l-34-20.4l-34,20.4L0.9-547.7z"/>
				</g>
				<g id="Group_174" transform="translate(0 140.575)">
					<path id="Path_611" class="st2" d="M69.9-589v41.9l-34.9,21L0-547.2V-589l34.9-21L69.9-589z M0.9-547.7l34,20.4l34-20.4v-40.8       l-34-20.4l-34,20.4V-547.7z"/>
				</g>
				<path id="Path_615" class="st3" d="M37.7-386.2c0,1.5-1.2,2.8-2.8,2.8c-1.5,0-2.8-1.2-2.8-2.8s1.2-2.8,2.8-2.8c0,0,0,0,0,0      C36.4-388.9,37.7-387.7,37.7-386.2z"/>
				<path id="Path_630" class="st2" d="M72.4-530.9c0,1.6-1.3,3-3,3s-3-1.3-3-3s1.3-3,3-3l0,0C71.1-533.9,72.4-532.6,72.4-530.9      C72.4-530.9,72.4-530.9,72.4-530.9z"/>
				<path id="Path_631" class="st3" d="M36.5-593c0,0.9-0.7,1.6-1.6,1.6s-1.6-0.7-1.6-1.6c0-0.9,0.7-1.6,1.6-1.6      C35.8-594.6,36.5-593.9,36.5-593C36.5-593,36.5-593,36.5-593z"/>
			</g>
			<g id="Group_205" transform="translate(128.865 346.302)">
				<g id="Group_180" transform="translate(32.052 58.91)">
					<path id="Path_646" class="st41" d="M32.5-532.1L0-551.6v-38.9L32.5-610L65-590.5v38.9L32.5-532.1z M0.9-552l31.6,19l31.6-19       v-38l-31.6-19L0.9-590V-552L0.9-552z"/>
				</g>
				<g id="Group_181" transform="translate(32.052 97.375)">
					<path id="Path_647" class="st44" d="M32.5-532.1L0-551.6v-39L32.5-610L65-590.5v39L32.5-532.1z M0.9-552l31.6,19l31.6-19v-38       l-31.6-19L0.9-590L0.9-552L0.9-552z"/>
				</g>
				<g id="Group_200" transform="translate(32.052 212.764)">
					<path id="Path_666" class="st44" d="M32.5-532.1L0-551.6v-39L32.5-610L65-590.5v39L32.5-532.1z M0.9-552l31.6,19l31.6-19v-38       l-31.6-19L0.9-590V-552z"/>
				</g>
				<g id="Group_201" transform="translate(0 155.066)">
					<path id="Path_667" class="st40" d="M32.5-532.1L0-551.6v-39L32.5-610L65-590.5v39L32.5-532.1z M0.9-552l31.6,19l31.6-19v-38       l-31.6-19L0.9-590L0.9-552z"/>
				</g>
				<path id="Path_671" class="st44" d="M35-454.4c0-1.4-1.1-2.6-2.6-2.6s-2.6,1.1-2.6,2.6c0,1.4,1.1,2.6,2.6,2.6c0,0,0,0,0,0      C33.9-451.9,35-453,35-454.4z"/>
			</g>
		</g>
	</g>
</g>
</svg>