<?xml version="1.0" encoding="utf-8"?>
<!-- Generator: Adobe Illustrator 23.1.1, SVG Export Plug-In . SVG Version: 6.00 Build 0)  -->
<svg version="1.1" id="Layer_1" xmlns="http://www.w3.org/2000/svg" xmlns:xlink="http://www.w3.org/1999/xlink" x="0px" y="0px"
	 viewBox="0 0 1266 720" style="enable-background:new 0 0 1266 720;" xml:space="preserve">
<style type="text/css">
	.st0{fill-rule:evenodd;clip-rule:evenodd;fill:url(#SVGID_1_);}
	.st1{fill:#629ED6;}
	.st2{fill:#3984C6;}
	.st3{fill:#394F99;}
	.st4{filter:url(#Adobe_OpacityMaskFilter);}
	.st5{mask:url(#SVGID_2_);}
	.st6{opacity:0.8;clip-path:url(#SVGID_6_);}
	.st7{fill:#FBBA00;}
	.st8{fill:#FECE61;}
	.st9{fill:#FDC743;}
	.st10{clip-path:url(#SVGID_8_);fill:url(#SVGID_9_);}
	.st11{clip-path:url(#SVGID_11_);fill:url(#SVGID_12_);}
	.st12{fill:#FFDD94;}
	.st13{clip-path:url(#SVGID_14_);fill:url(#SVGID_15_);}
	.st14{clip-path:url(#SVGID_17_);fill:url(#SVGID_18_);}
	.st15{clip-path:url(#SVGID_20_);fill:url(#SVGID_21_);}
	.st16{clip-path:url(#SVGID_23_);fill:url(#SVGID_24_);}
	.st17{clip-path:url(#SVGID_26_);}
	.st18{clip-path:url(#SVGID_28_);fill:url(#SVGID_29_);}
	.st19{clip-path:url(#SVGID_26_);fill:#FFDD94;}
	.st20{fill:#5F6AA6;}
	.st21{fill:#FFFFFF;}
	.st22{fill:#2F7DC1;}
	.st23{fill-rule:evenodd;clip-rule:evenodd;fill:url(#SVGID_30_);}
	.st24{filter:url(#Adobe_OpacityMaskFilter_1_);}
	.st25{mask:url(#SVGID_31_);}
	.st26{opacity:0.8;clip-path:url(#SVGID_35_);}
	.st27{clip-path:url(#SVGID_37_);fill:url(#SVGID_38_);}
	.st28{clip-path:url(#SVGID_40_);fill:url(#SVGID_41_);}
	.st29{clip-path:url(#SVGID_43_);fill:url(#SVGID_44_);}
	.st30{clip-path:url(#SVGID_46_);fill:url(#SVGID_47_);}
	.st31{clip-path:url(#SVGID_49_);fill:url(#SVGID_50_);}
	.st32{clip-path:url(#SVGID_52_);fill:url(#SVGID_53_);}
	.st33{fill:url(#SVGID_54_);}
	.st34{fill-rule:evenodd;clip-rule:evenodd;fill:url(#SVGID_55_);}
	.st35{filter:url(#Adobe_OpacityMaskFilter_2_);}
	.st36{mask:url(#SVGID_56_);}
	.st37{opacity:0.8;clip-path:url(#SVGID_60_);}
	.st38{clip-path:url(#SVGID_62_);fill:url(#SVGID_63_);}
	.st39{clip-path:url(#SVGID_65_);fill:url(#SVGID_66_);}
	.st40{fill:url(#SVGID_67_);}
	.st41{fill-rule:evenodd;clip-rule:evenodd;fill:url(#SVGID_68_);}
	.st42{fill:url(#SVGID_69_);}
	.st43{fill:url(#SVGID_70_);}
	.st44{clip-path:url(#SVGID_72_);fill:url(#SVGID_73_);}
	.st45{clip-path:url(#SVGID_75_);fill:url(#SVGID_76_);}
	.st46{clip-path:url(#SVGID_78_);fill:url(#SVGID_79_);}
	.st47{clip-path:url(#SVGID_81_);fill:url(#SVGID_82_);}
	.st48{clip-path:url(#SVGID_84_);fill:url(#SVGID_85_);}
	.st49{clip-path:url(#SVGID_87_);fill:url(#SVGID_88_);}
	.st50{fill:none;}
	.st51{fill-rule:evenodd;clip-rule:evenodd;fill:url(#SVGID_89_);}
	.st52{filter:url(#Adobe_OpacityMaskFilter_3_);}
	.st53{mask:url(#SVGID_90_);}
	.st54{opacity:0.8;clip-path:url(#SVGID_94_);}
	.st55{clip-path:url(#SVGID_96_);fill:url(#SVGID_97_);}
	.st56{clip-path:url(#SVGID_99_);fill:url(#SVGID_100_);}
	.st57{clip-path:url(#SVGID_102_);fill:url(#SVGID_103_);}
	.st58{clip-path:url(#SVGID_105_);fill:url(#SVGID_106_);}
	.st59{clip-path:url(#SVGID_108_);fill:url(#SVGID_109_);}
	.st60{clip-path:url(#SVGID_111_);fill:url(#SVGID_112_);}
	.st61{fill:#307EC1;}
	.st62{fill-rule:evenodd;clip-rule:evenodd;fill:url(#SVGID_113_);}
	.st63{fill:#639DD5;}
	.st64{fill:#3B84C5;}
	.st65{fill:#3A5099;}
	.st66{filter:url(#Adobe_OpacityMaskFilter_4_);}
	.st67{mask:url(#SVGID_114_);}
	.st68{opacity:0.8;clip-path:url(#SVGID_118_);fill:#1E1E1C;}
	.st69{fill:none;stroke:#FFDC93;stroke-width:2.536;stroke-miterlimit:10;}
	.st70{fill:#3A5099;stroke:#FFDC93;stroke-width:1.0106;stroke-miterlimit:10;}
	.st71{fill:none;stroke:#FFDC93;stroke-width:1.6907;stroke-miterlimit:10;}
	.st72{fill:#3A5099;stroke:#FFDC93;stroke-width:0.6306;stroke-miterlimit:10;}
	.st73{fill:#FAB90B;}
	.st74{fill:#FECF62;}
	.st75{fill:#FCC643;}
	.st76{clip-path:url(#SVGID_120_);fill:url(#SVGID_121_);}
	.st77{clip-path:url(#SVGID_123_);fill:url(#SVGID_124_);}
	.st78{fill:#FFDC93;}
	.st79{clip-path:url(#SVGID_126_);fill:url(#SVGID_127_);}
	.st80{clip-path:url(#SVGID_129_);fill:url(#SVGID_130_);}
	.st81{clip-path:url(#SVGID_132_);fill:url(#SVGID_133_);}
	.st82{clip-path:url(#SVGID_135_);fill:url(#SVGID_136_);}
	.st83{fill:none;stroke:#FFDC93;stroke-width:2.0212;stroke-miterlimit:10;}
	.st84{fill:none;stroke:#FFDC93;stroke-width:1.4534;stroke-miterlimit:10;}
	.st85{fill:none;stroke:#FFDC93;stroke-width:1.5725;stroke-miterlimit:10;}
	.st86{fill:none;stroke:#FFDC93;stroke-width:1.6767;stroke-miterlimit:10;}
	.st87{fill-rule:evenodd;clip-rule:evenodd;fill:url(#SVGID_137_);}
	.st88{fill-rule:evenodd;clip-rule:evenodd;fill:#23418E;}
	.st89{opacity:0.1;}
	.st90{clip-path:url(#SVGID_139_);fill-rule:evenodd;clip-rule:evenodd;fill:#FFFFFF;}
	.st91{clip-path:url(#SVGID_141_);fill:url(#SVGID_142_);}
	.st92{opacity:0.75;}
	.st93{clip-path:url(#SVGID_144_);}
	.st94{clip-path:url(#SVGID_148_);}
	.st95{clip-path:url(#SVGID_152_);fill:url(#SVGID_153_);}
	.st96{clip-path:url(#SVGID_155_);fill:url(#SVGID_156_);}
	.st97{clip-path:url(#SVGID_158_);}
	.st98{clip-path:url(#SVGID_162_);fill:url(#SVGID_163_);}
	.st99{clip-path:url(#SVGID_165_);}
	.st100{fill:#BEBFDF;}
	.st101{filter:url(#Adobe_OpacityMaskFilter_5_);}
	.st102{mask:url(#SVGID_168_);}
	.st103{opacity:0.8;clip-path:url(#SVGID_172_);fill:#231F20;}
	.st104{fill:#FBB81B;}
	.st105{fill:#FDCB68;}
	.st106{fill:#FCC34F;}
	.st107{clip-path:url(#SVGID_174_);fill:url(#SVGID_175_);}
	.st108{clip-path:url(#SVGID_177_);fill:url(#SVGID_178_);}
	.st109{fill:#FED88F;}
	.st110{clip-path:url(#SVGID_180_);fill:url(#SVGID_181_);}
	.st111{clip-path:url(#SVGID_183_);fill:url(#SVGID_184_);}
	.st112{clip-path:url(#SVGID_186_);fill:url(#SVGID_187_);}
	.st113{clip-path:url(#SVGID_189_);fill:url(#SVGID_190_);}
	.st114{fill:none;stroke:#FFFFFF;stroke-width:0.9761;stroke-miterlimit:10;}
	.st115{fill:#E84133;}
	.st116{fill:url(#SVGID_191_);}
	.st117{fill:#DBDBDB;stroke:#FFFFFF;stroke-width:1.0021;stroke-miterlimit:10;}
	.st118{fill:#B6B3B3;stroke:#FFFFFF;stroke-width:0.9924;stroke-miterlimit:10;}
	.st119{fill:#FFFFFF;stroke:#FFFFFF;stroke-width:1.0453;stroke-miterlimit:10;}
	.st120{fill-rule:evenodd;clip-rule:evenodd;fill:url(#SVGID_192_);}
	.st121{filter:url(#Adobe_OpacityMaskFilter_6_);}
	.st122{mask:url(#SVGID_193_);}
	.st123{opacity:0.8;clip-path:url(#SVGID_197_);fill:#231F20;}
	.st124{clip-path:url(#SVGID_199_);fill:url(#SVGID_200_);}
	.st125{clip-path:url(#SVGID_202_);fill:url(#SVGID_203_);}
	.st126{clip-path:url(#SVGID_205_);fill:url(#SVGID_206_);}
	.st127{clip-path:url(#SVGID_208_);fill:url(#SVGID_209_);}
	.st128{clip-path:url(#SVGID_211_);fill:url(#SVGID_212_);}
	.st129{clip-path:url(#SVGID_214_);fill:url(#SVGID_215_);}
	.st130{fill:url(#SVGID_216_);}
	.st131{fill-rule:evenodd;clip-rule:evenodd;fill:url(#SVGID_217_);}
	.st132{filter:url(#Adobe_OpacityMaskFilter_7_);}
	.st133{mask:url(#SVGID_218_);}
	.st134{opacity:0.8;clip-path:url(#SVGID_222_);fill:#231F20;}
	.st135{clip-path:url(#SVGID_224_);fill:url(#SVGID_225_);}
	.st136{clip-path:url(#SVGID_227_);fill:url(#SVGID_228_);}
	.st137{clip-path:url(#SVGID_230_);fill:url(#SVGID_231_);}
	.st138{clip-path:url(#SVGID_233_);fill:url(#SVGID_234_);}
	.st139{clip-path:url(#SVGID_236_);fill:url(#SVGID_237_);}
	.st140{clip-path:url(#SVGID_239_);fill:url(#SVGID_240_);}
	.st141{fill:url(#SVGID_241_);}
	.st142{fill:#B0B3D5;}
	.st143{clip-path:url(#SVGID_243_);fill-rule:evenodd;clip-rule:evenodd;fill:#FFFFFF;}
	.st144{clip-path:url(#SVGID_245_);fill:url(#SVGID_246_);}
	.st145{clip-path:url(#SVGID_248_);}
	.st146{clip-path:url(#SVGID_252_);}
	.st147{clip-path:url(#SVGID_256_);fill:url(#SVGID_257_);}
	.st148{clip-path:url(#SVGID_259_);fill:url(#SVGID_260_);}
	.st149{clip-path:url(#SVGID_262_);}
	.st150{clip-path:url(#SVGID_266_);fill:url(#SVGID_267_);}
	.st151{clip-path:url(#SVGID_269_);}
	.st152{fill:#283583;}
	.st153{fill:#E85014;}
	.st154{fill:#C12C16;}
	.st155{fill:#F7A600;}
	.st156{clip-path:url(#SVGID_273_);fill:#FFFFFF;}
	.st157{clip-path:url(#SVGID_273_);fill:#D65411;}
	.st158{clip-path:url(#SVGID_273_);fill:#FEC800;}
	.st159{clip-path:url(#SVGID_273_);fill:#F18B19;}
</style>
<g>
	<g>
		<g>
			<g>
				<polygon class="st88" points="363.8,56.2 628.1,208.8 628.1,514 363.8,666.5 99.5,514 99.5,208.8 				"/>
				<g class="st89">
					<g>
						<defs>
							<rect id="SVGID_242_" x="99.5" y="53.5" width="528.6" height="307.9"/>
						</defs>
						<clipPath id="SVGID_1_">
							<use xlink:href="#SVGID_242_"  style="overflow:visible;"/>
						</clipPath>
						<polygon style="clip-path:url(#SVGID_1_);fill-rule:evenodd;clip-rule:evenodd;fill:#FFFFFF;" points="99.5,206 99.5,208.8 
							363.8,361.4 628.1,208.8 628.1,206 363.8,53.5 						"/>
					</g>
				</g>
				<polygon class="st8" points="383.4,181.9 437.7,213.3 443.4,203.5 443.4,182 413.3,164.6 				"/>
				<polygon class="st9" points="450.9,188.6 422.8,172.3 394.7,188.6 394.7,221.1 422.8,237.3 450.9,221.1 				"/>
				<g>
					<defs>
						<polygon id="SVGID_244_" points="394.7,188.6 394.7,220.8 411.2,230.3 439.3,214.1 439.3,181.9 422.8,172.3 						"/>
					</defs>
					<clipPath id="SVGID_2_">
						<use xlink:href="#SVGID_244_"  style="overflow:visible;"/>
					</clipPath>
					
						<linearGradient id="SVGID_4_" gradientUnits="userSpaceOnUse" x1="-5087.8481" y1="-888.907" x2="-5086.5864" y2="-888.907" gradientTransform="matrix(0 56.8658 -56.8658 0 -50131.4219 289501.0625)">
						<stop  offset="0" style="stop-color:#D63517"/>
						<stop  offset="2.872930e-03" style="stop-color:#D63517"/>
						<stop  offset="1" style="stop-color:#FBBA00"/>
					</linearGradient>
					<rect x="394.7" y="172.3" style="clip-path:url(#SVGID_2_);fill:url(#SVGID_4_);" width="44.7" height="58"/>
				</g>
				<g class="st92">
					<g>
						<defs>
							<rect id="SVGID_247_" x="373.7" y="161.8" width="98.4" height="107.8"/>
						</defs>
						<clipPath id="SVGID_6_">
							<use xlink:href="#SVGID_247_"  style="overflow:visible;"/>
						</clipPath>
						<g style="clip-path:url(#SVGID_6_);">
							<defs>
								<rect id="SVGID_249_" x="373.7" y="161.8" width="98.4" height="107.8"/>
							</defs>
							<clipPath id="SVGID_8_">
								<use xlink:href="#SVGID_249_"  style="overflow:visible;"/>
							</clipPath>
							<g style="clip-path:url(#SVGID_8_);">
								
									<image style="overflow:visible;" width="325" height="356" xlink:href="463FC38E94107622.png"  transform="matrix(0.3028 0 0 0.3028 373.6832 161.7736)">
								</image>
							</g>
						</g>
					</g>
				</g>
				<path class="st12" d="M422.8,239.7l-30.2-17.4v-34.9l30.2-17.4l30.2,17.4v34.9L422.8,239.7z M396.7,219.9l26.1,15.1l26.1-15.1
					v-30.1l-26.1-15.1l-26.1,15.1V219.9z"/>
				<polygon class="st8" points="327.3,181.9 381.6,213.3 387.3,203.5 387.3,182 357.2,164.6 				"/>
				<g class="st92">
					<g>
						<defs>
							<rect id="SVGID_251_" x="319.6" y="164.1" width="94.2" height="102.9"/>
						</defs>
						<clipPath id="SVGID_9_">
							<use xlink:href="#SVGID_251_"  style="overflow:visible;"/>
						</clipPath>
						<g style="clip-path:url(#SVGID_9_);">
							<defs>
								<rect id="SVGID_253_" x="319.6" y="164.1" width="94.2" height="102.9"/>
							</defs>
							<clipPath id="SVGID_11_">
								<use xlink:href="#SVGID_253_"  style="overflow:visible;"/>
							</clipPath>
							<g style="clip-path:url(#SVGID_11_);">
								
									<image style="overflow:visible;" width="311" height="340" xlink:href="463FC38E94107626.png"  transform="matrix(0.3028 0 0 0.3028 319.6164 164.1425)">
								</image>
							</g>
						</g>
					</g>
				</g>
				<polygon class="st9" points="394.8,188.6 366.7,172.3 338.5,188.6 338.5,221.1 366.7,237.3 394.8,221.1 				"/>
				<g>
					<defs>
						<polygon id="SVGID_255_" points="338.5,188.6 338.5,220.8 355.1,230.3 383.2,214.1 383.2,181.9 366.7,172.3 						"/>
					</defs>
					<clipPath id="SVGID_12_">
						<use xlink:href="#SVGID_255_"  style="overflow:visible;"/>
					</clipPath>
					
						<linearGradient id="SVGID_14_" gradientUnits="userSpaceOnUse" x1="-4970.6226" y1="-840.564" x2="-4969.3613" y2="-840.564" gradientTransform="matrix(35.3936 0 0 -35.3936 176266.7656 -29549.2637)">
						<stop  offset="0" style="stop-color:#D63517"/>
						<stop  offset="2.872930e-03" style="stop-color:#D63517"/>
						<stop  offset="1" style="stop-color:#FBBA00"/>
					</linearGradient>
					<rect x="338.5" y="172.3" style="clip-path:url(#SVGID_12_);fill:url(#SVGID_14_);" width="44.6" height="58"/>
				</g>
				<g>
					<defs>
						<polygon id="SVGID_258_" points="338.5,188.6 338.5,220.8 355.1,230.3 383.2,214.1 383.2,181.9 366.7,172.3 						"/>
					</defs>
					<clipPath id="SVGID_15_">
						<use xlink:href="#SVGID_258_"  style="overflow:visible;"/>
					</clipPath>
					
						<linearGradient id="SVGID_17_" gradientUnits="userSpaceOnUse" x1="-4970.6226" y1="-840.564" x2="-4969.3613" y2="-840.564" gradientTransform="matrix(35.3936 0 0 -35.3936 176266.7656 -29549.2637)">
						<stop  offset="0" style="stop-color:#D63517"/>
						<stop  offset="2.872930e-03" style="stop-color:#D63517"/>
						<stop  offset="1" style="stop-color:#FBBA00"/>
					</linearGradient>
					<rect x="338.5" y="172.3" style="clip-path:url(#SVGID_15_);fill:url(#SVGID_17_);" width="44.6" height="58"/>
				</g>
				<path class="st12" d="M366.7,239.7l-30.2-17.4v-34.9l30.2-17.4l30.2,17.4v34.9L366.7,239.7z M340.6,219.9l26.1,15.1l26.1-15.1
					v-30.1l-26.1-15.1l-26.1,15.1V219.9z"/>
				<g class="st92">
					<g>
						<defs>
							<rect id="SVGID_261_" x="252" y="156.4" width="98.1" height="107.5"/>
						</defs>
						<clipPath id="SVGID_18_">
							<use xlink:href="#SVGID_261_"  style="overflow:visible;"/>
						</clipPath>
						<g style="clip-path:url(#SVGID_18_);">
							<defs>
								<rect id="SVGID_263_" x="252" y="156.4" width="98.1" height="107.5"/>
							</defs>
							<clipPath id="SVGID_20_">
								<use xlink:href="#SVGID_263_"  style="overflow:visible;"/>
							</clipPath>
							<g style="clip-path:url(#SVGID_20_);">
								
									<image style="overflow:visible;" width="324" height="355" xlink:href="463FC38E94107621.png"  transform="matrix(0.3028 0 0 0.3028 252.0235 156.4374)">
								</image>
							</g>
						</g>
					</g>
				</g>
				<polygon class="st7" points="331.1,182 301,164.6 270.9,182 270.9,216.8 301,234.1 331.1,216.8 				"/>
				<polygon class="st8" points="271.2,181.9 325.5,213.3 331.1,203.5 331.1,182 301,164.6 				"/>
				<polygon class="st9" points="338.7,188.6 310.6,172.3 282.4,188.6 282.4,221.1 310.6,237.3 338.7,221.1 				"/>
				<g>
					<defs>
						<polygon id="SVGID_265_" points="282.4,188.6 282.4,220.8 298.9,230.3 327.1,214.1 327.1,181.9 310.6,172.3 						"/>
					</defs>
					<clipPath id="SVGID_21_">
						<use xlink:href="#SVGID_265_"  style="overflow:visible;"/>
					</clipPath>
					
						<linearGradient id="SVGID_23_" gradientUnits="userSpaceOnUse" x1="-5087.8481" y1="-888.4982" x2="-5086.5864" y2="-888.4982" gradientTransform="matrix(0 56.8658 -56.8658 0 -50220.4219 289501.0625)">
						<stop  offset="0" style="stop-color:#D63517"/>
						<stop  offset="2.872930e-03" style="stop-color:#D63517"/>
						<stop  offset="1" style="stop-color:#FBBA00"/>
					</linearGradient>
					<rect x="282.4" y="172.3" style="clip-path:url(#SVGID_21_);fill:url(#SVGID_23_);" width="44.7" height="58"/>
				</g>
				<path class="st12" d="M310.6,239.7l-30.2-17.4v-34.9l30.2-17.4l30.2,17.4v34.9L310.6,239.7z M284.5,219.9l26.1,15.1l26.1-15.1
					v-30.1l-26.1-15.1l-26.1,15.1V219.9z"/>
				<g class="st92">
					<g>
						<defs>
							<rect id="SVGID_268_" x="406.9" y="133.9" width="173.8" height="103.9"/>
						</defs>
						<clipPath id="SVGID_24_">
							<use xlink:href="#SVGID_268_"  style="overflow:visible;"/>
						</clipPath>
						<g style="clip-path:url(#SVGID_24_);">
							<defs>
								<rect id="SVGID_270_" x="406.9" y="133.9" width="173.8" height="103.9"/>
							</defs>
							<clipPath id="SVGID_26_">
								<use xlink:href="#SVGID_270_"  style="overflow:visible;"/>
							</clipPath>
							<g class="st17">
								
									<image style="overflow:visible;" width="574" height="343" xlink:href="463FC38E94107623.png"  transform="matrix(0.3028 0 0 0.3028 406.8975 133.9351)">
								</image>
							</g>
						</g>
					</g>
				</g>
				<path class="st21" d="M520,144c-14.3,0-26.5,9.1-31,21.9h-61.1c-6,0-11,4.9-11,11c0,6.1,4.9,11,11,11h7.8v17H458v-17h31
					c4.5,12.8,16.7,21.9,31,21.9c18.1,0,32.9-14.7,32.9-32.9C552.9,158.7,538.1,144,520,144 M520,189.9c-2.6,0-5-0.8-7-2h1.5
					c6.1,0,11-4.9,11-11c0-6-4.9-11-11-11H513c2-1.3,4.4-2,7-2c7.2,0,13,5.8,13,13C533,184.1,527.2,189.9,520,189.9"/>
			</g>
			<path class="st100" d="M253.9,430.2c0,1.4-0.2,2.7-0.5,4c-0.4,1.2-0.9,2.3-1.5,3.3c-0.7,1-1.4,1.8-2.4,2.5
				c-0.9,0.7-2,1.3-3.1,1.8c-1.2,0.5-2.4,0.9-3.7,1.1c-1.3,0.2-2.8,0.4-4.6,0.4h-11.9c-0.5,0-1.1-0.2-1.5-0.5
				c-0.5-0.4-0.7-1-0.7-1.9v-40.6c0-0.9,0.2-1.6,0.7-1.9c0.5-0.4,1-0.5,1.5-0.5h10.3c2.7,0,4.9,0.3,6.7,0.8c1.7,0.5,3.2,1.3,4.3,2.3
				c1.2,1,2,2.2,2.6,3.6c0.6,1.4,0.9,3,0.9,4.9c0,1.1-0.1,2.1-0.4,3.1c-0.3,1-0.6,1.9-1.1,2.7c-0.5,0.8-1.1,1.6-1.9,2.2
				c-0.8,0.7-1.6,1.2-2.6,1.6c1.2,0.2,2.4,0.7,3.5,1.3c1.1,0.6,2,1.4,2.8,2.4c0.8,1,1.4,2.1,1.9,3.4
				C253.6,427.2,253.9,428.6,253.9,430.2 M244.8,409.8c0-1.1-0.2-2.1-0.5-3c-0.3-0.9-0.8-1.6-1.4-2.3c-0.7-0.6-1.5-1.1-2.6-1.4
				c-1.1-0.3-2.4-0.5-4.2-0.5h-6.2v14.7h6.9c1.6,0,2.8-0.2,3.8-0.6c1-0.4,1.8-1,2.4-1.7c0.6-0.7,1.1-1.5,1.4-2.4
				C244.6,411.8,244.8,410.8,244.8,409.8 M247.5,430.5c0-1.4-0.2-2.6-0.6-3.6c-0.4-1-1.1-1.9-1.9-2.6c-0.8-0.7-1.9-1.2-3.1-1.6
				c-1.3-0.4-2.8-0.5-4.7-0.5h-7.2v16h8.8c1.4,0,2.6-0.2,3.6-0.5c1-0.3,1.9-0.8,2.7-1.5c0.8-0.6,1.4-1.4,1.8-2.4
				C247.3,432.9,247.5,431.8,247.5,430.5"/>
			<path class="st100" d="M286.8,437.5c0,0.2,0,0.4-0.1,0.8c0,0.4-0.1,0.8-0.2,1.2c-0.1,0.4-0.2,0.9-0.3,1.3
				c-0.1,0.4-0.3,0.8-0.5,1.2c-0.2,0.4-0.4,0.7-0.6,0.9c-0.2,0.2-0.5,0.4-0.8,0.4h-26.2c-0.5,0-0.9,0-1.2-0.1
				c-0.3-0.1-0.6-0.2-0.7-0.4c-0.2-0.2-0.3-0.4-0.4-0.6c-0.1-0.2-0.1-0.5-0.1-0.8c0-0.4,0-0.8,0.1-1.4c0.1-0.6,0.2-1.2,0.4-2
				c0.2-0.7,0.5-1.4,1-2.2c0.4-0.7,1-1.4,1.7-2.1l10.7-9.4c1.4-1.3,2.6-2.4,3.7-3.6c1-1.1,1.9-2.1,2.7-3.1c0.7-0.9,1.3-1.8,1.8-2.6
				c0.5-0.8,0.8-1.6,1.1-2.2c0.3-0.7,0.4-1.3,0.5-1.9c0.1-0.6,0.1-1.1,0.1-1.5c0-0.4-0.1-0.9-0.2-1.4c-0.1-0.5-0.4-0.9-0.7-1.4
				c-0.4-0.4-0.8-0.7-1.5-1c-0.6-0.3-1.4-0.4-2.4-0.4c-1.2,0-2.4,0.2-3.6,0.5c-1.1,0.4-2.1,0.8-3.1,1.2c-0.9,0.4-1.7,0.8-2.3,1.2
				c-0.6,0.4-1.1,0.5-1.4,0.5c-0.3,0-0.5-0.1-0.7-0.4c-0.1-0.3-0.2-0.7-0.2-1.2c0-0.2,0-0.4,0-0.8c0-0.3,0.1-0.7,0.1-1.1
				c0.1-0.4,0.1-0.8,0.2-1.2c0.1-0.4,0.2-0.9,0.3-1.3c0.1-0.4,0.3-0.8,0.4-1.1c0.2-0.3,0.4-0.6,0.6-0.9c0.3-0.3,0.8-0.6,1.7-1.1
				c0.8-0.4,1.8-0.9,3-1.3c1.2-0.4,2.5-0.8,3.9-1.1c1.4-0.3,2.9-0.4,4.3-0.4c2.5,0,4.5,0.3,6.2,0.9c1.6,0.6,2.9,1.4,3.9,2.4
				c1,1,1.6,2.1,2,3.2c0.4,1.2,0.6,2.3,0.6,3.5c0,1-0.1,2.1-0.3,3.1c-0.2,1-0.5,2.1-0.9,3.2c-0.4,1.1-1,2.3-1.8,3.5
				c-0.8,1.2-1.8,2.5-2.9,3.9c-1.2,1.4-2.6,2.9-4.3,4.5c-1.7,1.6-3.7,3.3-5.9,5.2l-6.5,5.5h17.3c0.4,0,0.7,0.2,0.9,0.5
				C286.7,436.6,286.8,437,286.8,437.5"/>
			<path class="st21" d="M334.7,439.8c0.3,0.8,0.5,1.5,0.5,2c0.1,0.5,0,0.9-0.3,1.1c-0.3,0.2-0.7,0.4-1.4,0.5
				c-0.7,0.1-1.6,0.1-2.7,0.1c-1.2,0-2.1,0-2.8-0.1c-0.7,0-1.2-0.1-1.5-0.2c-0.4-0.1-0.6-0.3-0.7-0.4c-0.1-0.2-0.3-0.4-0.4-0.7
				l-3.1-9.1h-17.1l-2.9,8.9c-0.1,0.3-0.2,0.6-0.4,0.8c-0.2,0.2-0.4,0.4-0.7,0.5c-0.3,0.1-0.8,0.2-1.4,0.3c-0.6,0-1.4,0.1-2.4,0.1
				c-1.1,0-1.9,0-2.5-0.1c-0.6-0.1-1-0.2-1.3-0.5c-0.2-0.3-0.3-0.6-0.2-1.1c0.1-0.5,0.2-1.1,0.5-2l14-40.4c0.1-0.4,0.3-0.7,0.5-1
				c0.2-0.2,0.5-0.4,0.9-0.6c0.4-0.1,1-0.2,1.7-0.2c0.7,0,1.7-0.1,2.9-0.1c1.4,0,2.5,0,3.3,0.1c0.8,0,1.5,0.1,1.9,0.2
				c0.5,0.1,0.8,0.3,1,0.6c0.2,0.3,0.4,0.6,0.5,1.1L334.7,439.8z M313.9,406.4L313.9,406.4l-6.5,19.3h12.9L313.9,406.4z"/>
			<path class="st21" d="M371.8,436.3c0,0.6,0,1.1-0.1,1.5c0,0.4-0.1,0.8-0.2,1.1c-0.1,0.3-0.2,0.5-0.3,0.8
				c-0.1,0.2-0.3,0.5-0.6,0.7c-0.3,0.3-0.8,0.6-1.5,1c-0.7,0.4-1.6,0.8-2.7,1.2c-1.1,0.4-2.3,0.7-3.7,1c-1.4,0.3-2.9,0.4-4.4,0.4
				c-3.1,0-5.9-0.5-8.4-1.4c-2.5-1-4.6-2.4-6.4-4.3c-1.8-1.9-3.1-4.3-4-7.2c-0.9-2.9-1.4-6.2-1.4-10c0-3.9,0.5-7.3,1.5-10.3
				c1-3,2.5-5.5,4.3-7.6c1.9-2,4.1-3.6,6.7-4.6c2.6-1.1,5.4-1.6,8.6-1.6c1.3,0,2.5,0.1,3.7,0.3c1.2,0.2,2.3,0.5,3.3,0.8
				c1,0.3,1.9,0.7,2.7,1.2c0.8,0.4,1.4,0.8,1.7,1.1c0.3,0.3,0.5,0.6,0.7,0.8c0.1,0.2,0.2,0.5,0.3,0.8c0.1,0.3,0.1,0.7,0.2,1.2
				c0,0.4,0.1,1,0.1,1.7c0,0.7,0,1.3-0.1,1.8c0,0.5-0.1,0.9-0.2,1.2c-0.1,0.3-0.3,0.5-0.4,0.7c-0.2,0.1-0.4,0.2-0.6,0.2
				c-0.3,0-0.8-0.2-1.3-0.6c-0.5-0.4-1.2-0.9-2.1-1.4c-0.9-0.5-1.9-1-3.1-1.4c-1.2-0.4-2.6-0.6-4.2-0.6c-1.8,0-3.4,0.4-4.8,1.1
				c-1.4,0.7-2.6,1.8-3.6,3.2c-1,1.4-1.8,3-2.3,5c-0.5,1.9-0.8,4.1-0.8,6.6c0,2.7,0.3,5,0.8,6.9c0.6,2,1.3,3.6,2.4,4.8
				c1,1.3,2.3,2.2,3.7,2.8c1.4,0.6,3.1,0.9,4.9,0.9c1.6,0,3.1-0.2,4.3-0.6c1.2-0.4,2.2-0.8,3.1-1.3c0.9-0.5,1.6-0.9,2.1-1.3
				c0.6-0.4,1-0.6,1.3-0.6c0.2,0,0.4,0,0.6,0.1c0.1,0.1,0.3,0.3,0.4,0.6c0.1,0.3,0.2,0.7,0.2,1.2
				C371.8,434.8,371.8,435.5,371.8,436.3"/>
			<path class="st21" d="M409.1,436.3c0,0.6,0,1.1-0.1,1.5c0,0.4-0.1,0.8-0.2,1.1c-0.1,0.3-0.2,0.5-0.3,0.8
				c-0.1,0.2-0.3,0.5-0.6,0.7c-0.3,0.3-0.8,0.6-1.5,1c-0.7,0.4-1.6,0.8-2.7,1.2c-1.1,0.4-2.3,0.7-3.7,1c-1.4,0.3-2.9,0.4-4.4,0.4
				c-3.1,0-5.9-0.5-8.4-1.4c-2.5-1-4.6-2.4-6.4-4.3c-1.8-1.9-3.1-4.3-4-7.2c-0.9-2.9-1.4-6.2-1.4-10c0-3.9,0.5-7.3,1.5-10.3
				c1-3,2.5-5.5,4.3-7.6c1.9-2,4.1-3.6,6.7-4.6c2.6-1.1,5.4-1.6,8.6-1.6c1.3,0,2.5,0.1,3.7,0.3c1.2,0.2,2.3,0.5,3.3,0.8
				c1,0.3,1.9,0.7,2.7,1.2c0.8,0.4,1.4,0.8,1.7,1.1c0.3,0.3,0.5,0.6,0.7,0.8c0.1,0.2,0.2,0.5,0.3,0.8c0.1,0.3,0.1,0.7,0.2,1.2
				c0,0.4,0.1,1,0.1,1.7c0,0.7,0,1.3-0.1,1.8c0,0.5-0.1,0.9-0.2,1.2c-0.1,0.3-0.3,0.5-0.4,0.7c-0.2,0.1-0.4,0.2-0.6,0.2
				c-0.4,0-0.8-0.2-1.3-0.6c-0.5-0.4-1.2-0.9-2.1-1.4c-0.9-0.5-1.9-1-3.1-1.4c-1.2-0.4-2.6-0.6-4.2-0.6c-1.8,0-3.4,0.4-4.8,1.1
				c-1.4,0.7-2.6,1.8-3.6,3.2c-1,1.4-1.8,3-2.3,5c-0.5,1.9-0.8,4.1-0.8,6.6c0,2.7,0.3,5,0.8,6.9c0.6,2,1.3,3.6,2.4,4.8
				c1,1.3,2.2,2.2,3.7,2.8c1.4,0.6,3.1,0.9,4.9,0.9c1.6,0,3.1-0.2,4.3-0.6c1.2-0.4,2.2-0.8,3.1-1.3c0.9-0.5,1.6-0.9,2.1-1.3
				c0.6-0.4,1-0.6,1.3-0.6c0.2,0,0.4,0,0.6,0.1c0.1,0.1,0.3,0.3,0.4,0.6c0.1,0.3,0.2,0.7,0.2,1.2
				C409.1,434.8,409.1,435.5,409.1,436.3"/>
			<path class="st21" d="M441.9,439.6c0,0.7,0,1.2-0.1,1.7c-0.1,0.5-0.1,0.8-0.3,1.1c-0.1,0.3-0.3,0.5-0.4,0.6
				c-0.2,0.1-0.4,0.2-0.6,0.2h-22.9c-0.8,0-1.4-0.2-2-0.7c-0.5-0.5-0.8-1.2-0.8-2.2v-39.7c0-1,0.3-1.8,0.8-2.2
				c0.5-0.5,1.2-0.7,2-0.7h22.7c0.2,0,0.4,0.1,0.6,0.2c0.2,0.1,0.3,0.3,0.4,0.6c0.1,0.3,0.2,0.7,0.3,1.1c0.1,0.5,0.1,1,0.1,1.7
				c0,0.7,0,1.2-0.1,1.7c-0.1,0.5-0.1,0.8-0.3,1.1c-0.1,0.3-0.3,0.5-0.4,0.6c-0.2,0.1-0.4,0.2-0.6,0.2h-16.2v11.1h13.8
				c0.2,0,0.4,0.1,0.6,0.2c0.2,0.1,0.3,0.3,0.4,0.6c0.1,0.3,0.2,0.6,0.3,1.1c0.1,0.5,0.1,1,0.1,1.7c0,0.7,0,1.2-0.1,1.7
				c-0.1,0.4-0.1,0.8-0.3,1.1c-0.1,0.3-0.3,0.5-0.4,0.6c-0.2,0.1-0.4,0.2-0.6,0.2h-13.8V436h16.4c0.2,0,0.4,0.1,0.6,0.2
				c0.2,0.1,0.3,0.3,0.4,0.6c0.1,0.3,0.2,0.6,0.3,1.1C441.9,438.4,441.9,438.9,441.9,439.6"/>
			<path class="st21" d="M476.3,429.6c0,2.4-0.4,4.5-1.3,6.3c-0.9,1.8-2.1,3.3-3.6,4.5c-1.5,1.2-3.3,2.1-5.3,2.7
				c-2,0.6-4.2,0.9-6.5,0.9c-1.6,0-3-0.1-4.4-0.4c-1.4-0.3-2.5-0.6-3.6-0.9c-1-0.4-1.9-0.7-2.6-1.1c-0.7-0.4-1.2-0.7-1.5-1.1
				c-0.3-0.3-0.5-0.7-0.7-1.3c-0.1-0.6-0.2-1.4-0.2-2.5c0-0.7,0-1.3,0.1-1.8c0-0.5,0.1-0.9,0.2-1.2c0.1-0.3,0.2-0.5,0.4-0.6
				c0.2-0.1,0.4-0.2,0.6-0.2c0.3,0,0.8,0.2,1.4,0.6c0.6,0.4,1.4,0.8,2.3,1.3c0.9,0.5,2.1,0.9,3.4,1.3c1.3,0.4,2.8,0.6,4.5,0.6
				c1.1,0,2.1-0.1,3-0.4c0.9-0.3,1.6-0.7,2.3-1.1c0.6-0.5,1.1-1.1,1.4-1.8c0.3-0.7,0.5-1.5,0.5-2.4c0-1-0.3-1.9-0.8-2.7
				c-0.6-0.7-1.3-1.4-2.2-2c-0.9-0.6-1.9-1.1-3.1-1.6c-1.1-0.5-2.3-1-3.6-1.6c-1.2-0.6-2.4-1.2-3.6-1.9c-1.1-0.7-2.2-1.6-3.1-2.6
				c-0.9-1-1.6-2.2-2.2-3.5c-0.6-1.4-0.8-3-0.8-4.9c0-2.2,0.4-4.1,1.2-5.8c0.8-1.7,1.9-3,3.3-4.1c1.4-1.1,3-1.9,4.9-2.4
				c1.9-0.5,3.8-0.8,5.9-0.8c1.1,0,2.2,0.1,3.2,0.2c1.1,0.2,2.1,0.4,3,0.7c0.9,0.3,1.8,0.6,2.5,1c0.7,0.4,1.2,0.6,1.4,0.9
				c0.2,0.2,0.4,0.4,0.5,0.6c0.1,0.2,0.2,0.4,0.2,0.7c0.1,0.3,0.1,0.6,0.1,1c0,0.4,0,0.9,0,1.5c0,0.7,0,1.3-0.1,1.7
				c0,0.5-0.1,0.9-0.2,1.2c-0.1,0.3-0.2,0.5-0.4,0.7c-0.2,0.1-0.4,0.2-0.6,0.2c-0.3,0-0.7-0.2-1.2-0.5c-0.6-0.3-1.3-0.7-2.1-1.1
				c-0.8-0.4-1.8-0.7-2.8-1.1c-1.1-0.3-2.3-0.5-3.6-0.5c-1,0-1.9,0.1-2.6,0.4c-0.8,0.2-1.4,0.6-1.9,1c-0.5,0.4-0.9,1-1.1,1.6
				c-0.2,0.6-0.4,1.3-0.4,1.9c0,1,0.3,1.9,0.8,2.6c0.6,0.7,1.3,1.4,2.2,2c0.9,0.6,2,1.1,3.1,1.6c1.2,0.5,2.4,1,3.6,1.6
				c1.2,0.6,2.4,1.2,3.6,1.9c1.2,0.7,2.2,1.6,3.1,2.6s1.7,2.2,2.2,3.5C476,426.2,476.3,427.8,476.3,429.6"/>
			<path class="st21" d="M509.5,429.6c0,2.4-0.4,4.5-1.3,6.3c-0.9,1.8-2.1,3.3-3.6,4.5c-1.5,1.2-3.3,2.1-5.3,2.7
				c-2,0.6-4.2,0.9-6.5,0.9c-1.6,0-3-0.1-4.4-0.4c-1.3-0.3-2.5-0.6-3.6-0.9c-1-0.4-1.9-0.7-2.6-1.1c-0.7-0.4-1.2-0.7-1.5-1.1
				c-0.3-0.3-0.5-0.7-0.6-1.3c-0.1-0.6-0.2-1.4-0.2-2.5c0-0.7,0-1.3,0.1-1.8c0-0.5,0.1-0.9,0.2-1.2c0.1-0.3,0.2-0.5,0.4-0.6
				c0.2-0.1,0.4-0.2,0.6-0.2c0.3,0,0.8,0.2,1.4,0.6c0.6,0.4,1.4,0.8,2.3,1.3c0.9,0.5,2.1,0.9,3.4,1.3c1.3,0.4,2.8,0.6,4.5,0.6
				c1.1,0,2.1-0.1,3-0.4c0.9-0.3,1.6-0.7,2.3-1.1c0.6-0.5,1.1-1.1,1.4-1.8c0.3-0.7,0.5-1.5,0.5-2.4c0-1-0.3-1.9-0.8-2.7
				c-0.6-0.7-1.3-1.4-2.2-2c-0.9-0.6-1.9-1.1-3.1-1.6c-1.2-0.5-2.3-1-3.6-1.6c-1.2-0.6-2.4-1.2-3.6-1.9c-1.2-0.7-2.2-1.6-3.1-2.6
				c-0.9-1-1.6-2.2-2.2-3.5c-0.6-1.4-0.8-3-0.8-4.9c0-2.2,0.4-4.1,1.2-5.8c0.8-1.7,1.9-3,3.3-4.1c1.4-1.1,3-1.9,4.9-2.4
				c1.9-0.5,3.8-0.8,5.9-0.8c1.1,0,2.2,0.1,3.2,0.2c1.1,0.2,2.1,0.4,3,0.7c0.9,0.3,1.8,0.6,2.5,1c0.7,0.4,1.2,0.6,1.4,0.9
				c0.2,0.2,0.4,0.4,0.5,0.6c0.1,0.2,0.2,0.4,0.2,0.7c0.1,0.3,0.1,0.6,0.1,1c0,0.4,0,0.9,0,1.5c0,0.7,0,1.3-0.1,1.7
				c0,0.5-0.1,0.9-0.2,1.2c-0.1,0.3-0.2,0.5-0.4,0.7c-0.2,0.1-0.4,0.2-0.6,0.2c-0.3,0-0.7-0.2-1.2-0.5c-0.6-0.3-1.3-0.7-2.1-1.1
				c-0.8-0.4-1.8-0.7-2.8-1.1c-1.1-0.3-2.3-0.5-3.6-0.5c-1,0-1.9,0.1-2.6,0.4c-0.8,0.2-1.4,0.6-1.9,1c-0.5,0.4-0.9,1-1.1,1.6
				c-0.2,0.6-0.4,1.3-0.4,1.9c0,1,0.3,1.9,0.8,2.6c0.6,0.7,1.3,1.4,2.2,2c0.9,0.6,2,1.1,3.1,1.6c1.2,0.5,2.4,1,3.6,1.6
				c1.2,0.6,2.4,1.2,3.6,1.9c1.2,0.7,2.2,1.6,3.1,2.6s1.7,2.2,2.2,3.5C509.2,426.2,509.5,427.8,509.5,429.6"/>
		</g>
	</g>
	<g>
		<polygon class="st152" points="730.7,398.8 792,398.8 792,416 753.4,416 753.4,432.4 789.7,432.4 789.7,449.6 753.4,449.6 
			753.4,469.7 793.3,469.7 793.3,486.9 730.7,486.9 730.7,398.8 		"/>
		<path class="st152" d="M813.2,398.8h22.7v52.8c0,7.3,1.2,12.5,3.6,15.6c2.4,3.1,6.3,4.7,11.7,4.7c5.4,0,9.3-1.6,11.7-4.7
			c2.4-3.1,3.6-8.3,3.6-15.6v-52.8h22.7v52.8c0,12.5-3.1,21.8-9.4,27.8c-6.2,6.1-15.8,9.1-28.6,9.1c-12.8,0-22.3-3-28.6-9.1
			c-6.3-6.1-9.4-15.4-9.4-27.8V398.8L813.2,398.8z"/>
		<path class="st152" d="M934.1,416v53.8h8.1c9.3,0,16.4-2.3,21.3-6.9c4.9-4.6,7.3-11.3,7.3-20.1c0-8.7-2.4-15.4-7.3-19.9
			c-4.9-4.6-12-6.8-21.3-6.8H934.1L934.1,416z M911.3,398.8h24c13.4,0,23.3,1,29.9,2.9c6.6,1.9,12.2,5.1,16.8,9.7
			c4.1,4,7.2,8.6,9.2,13.7c2,5.2,3,11.1,3,17.6c0,6.6-1,12.6-3,17.8c-2,5.2-5.1,9.8-9.2,13.8c-4.7,4.6-10.4,7.8-17,9.7
			c-6.6,1.9-16.5,2.9-29.7,2.9h-24V398.8L911.3,398.8z"/>
		<path class="st152" d="M1035.2,454.5h24.1l-12-35L1035.2,454.5L1035.2,454.5z M1065.1,470.9h-35.5l-5.6,16h-22.8l32.6-88.1h27.1
			l32.6,88.1h-22.8L1065.1,470.9L1065.1,470.9z"/>
		<polygon class="st152" points="1085.3,398.8 1166.5,398.8 1166.5,416 1137.3,416 1137.3,486.9 1114.5,486.9 1114.5,416 
			1085.3,416 1085.3,398.8 		"/>
		<polyline class="st153" points="817.9,231.4 751.6,269.7 751.6,346.3 817.9,384.6 884.2,346.3 884.2,269.7 817.9,231.4 		"/>
		<polyline class="st154" points="751.6,346.3 817.6,384.6 817.6,270.9 751.6,269.7 751.6,346.3 		"/>
		<polyline class="st155" points="753.9,269.5 817.9,232.6 882,269.5 817.9,306.3 753.9,269.5 		"/>
		<path class="st21" d="M751.6,269.4v0.2l0.1-0.1L751.6,269.4 M884.2,269.4l-0.1,0.1l0.1,0.1V269.4 M817.9,231.4l-66.2,38.1
			l66.2,38.1l66.2-38.1L817.9,231.4 M817.9,233.8l61.9,35.7l-61.9,35.7L756,269.5L817.9,233.8"/>
		<polyline class="st153" points="1016.9,269.7 950.6,231.4 884.2,269.7 884.2,346.3 950.6,384.6 1016.9,346.3 1016.9,269.7 		"/>
		<polyline class="st154" points="950.3,269.7 884.2,269.7 884.2,346.3 950.3,384.6 950.3,269.7 		"/>
		<polyline class="st155" points="886.5,269.5 950.6,232.6 1014.6,269.5 950.6,306.3 886.5,269.5 		"/>
		<path class="st21" d="M884.2,269.4v0.2l0.1-0.1L884.2,269.4 M1016.9,269.4l-0.1,0.1l0.1,0.1V269.4 M950.6,231.4l-66.2,38.1
			l66.2,38.1l66.2-38.1L950.6,231.4 M950.6,233.8l61.9,35.7l-61.9,35.7l-61.9-35.7L950.6,233.8"/>
		<polyline class="st153" points="1149.5,269.7 1083.2,231.4 1016.9,269.7 1016.9,346.3 1083.2,384.6 1149.5,346.3 1149.5,269.7 		
			"/>
		<polyline class="st154" points="1082.9,270.3 1016.9,269.7 1016.9,346.3 1082.9,384.6 1082.9,270.3 		"/>
		<polyline class="st155" points="1019.1,269.5 1083.2,232.6 1147.3,269.5 1083.2,306.3 1019.1,269.5 		"/>
		<path class="st21" d="M1016.9,269.4v0.2l0.1-0.1L1016.9,269.4 M1149.5,269.4l-0.1,0.1l0.1,0.1V269.4 M1083.2,231.4l-66.2,38.1
			l66.2,38.1l66.2-38.1L1083.2,231.4 M1083.2,233.8l61.9,35.7l-61.9,35.7l-61.9-35.7L1083.2,233.8"/>
		<g>
			<defs>
				<polyline id="SVGID_272_" points="1083.2,232.8 1016.9,271.1 950.6,232.8 884.3,271.1 817.2,232.8 751.3,271.5 751.6,346.3 
					817.9,384.6 884.2,346.3 950.6,384.6 1016.9,346.3 1083.2,384.6 1149.5,346.3 1149.6,271.1 1083.2,232.8 				"/>
			</defs>
			<clipPath id="SVGID_28_">
				<use xlink:href="#SVGID_272_"  style="overflow:visible;"/>
			</clipPath>
			<path style="clip-path:url(#SVGID_28_);fill:#FFFFFF;" d="M751.6,331.6C751.6,331.6,751.6,331.6,751.6,331.6l-0.1-12.3
				c0,0,0.1,0,0.1,0V331.6 M751.4,286.2l-0.1-14.4l0.3-0.2V286L751.4,286.2"/>
			<path style="clip-path:url(#SVGID_28_);fill:#D65411;" d="M753,331.7c-0.5,0-1,0-1.4-0.1v-12.3c0.2,0.1,0.4,0.1,0.6,0.2
				c0.3,0.1,0.6,0.1,0.9,0.1c0.7,0,1.5-0.2,2.1-0.7l25.5-16.6c0.9-0.6,1.5-1.4,1.7-2.5c0.2-1.1,0.1-2.1-0.6-3.1l-10.3-15.9
				l22.1,12.7c0.3,0.8,0.5,1.6,0.6,2.5c0.3,2.1,0.3,4.2-0.1,6.2c-0.4,2-1.2,3.9-2.4,5.7c-1.2,1.8-2.7,3.3-4.6,4.5l-25.4,16.5
				c-1.9,1.2-3.9,2-6,2.4C754.9,331.6,754,331.7,753,331.7 M751.6,286v-14.4l1.8-1.2l11.8,6.8c-0.2,0.1-0.4,0.2-0.6,0.3L751.6,286"
				/>
			<path style="clip-path:url(#SVGID_28_);fill:#FEC800;" d="M792.1,290.2L756,269.5l7.2-4.1c0.2,0,0.4-0.1,0.7-0.1
				c0.9-0.1,1.9-0.2,2.8-0.2c1.2,0,2.3,0.1,3.4,0.3c2,0.4,4,1.2,5.7,2.4c1.8,1.2,3.3,2.7,4.5,4.5L792.1,290.2
				C792,290.2,792,290.2,792.1,290.2"/>
			<path style="clip-path:url(#SVGID_28_);fill:#FFFFFF;" d="M793.7,293.6l-22.1-12.7l-1.4-2.1c-0.6-0.9-1.5-1.5-2.6-1.8
				c-0.3-0.1-0.6-0.1-0.9-0.1c-0.5,0-1,0.1-1.5,0.3l-11.8-6.8l2.3-1.5l4.6-2.7c0.9-0.4,1.9-0.7,2.8-0.9l-7.2,4.1l36.1,20.8
				C792.8,291.3,793.3,292.5,793.7,293.6"/>
			<path style="clip-path:url(#SVGID_28_);fill:#FEC800;" d="M816.3,293.8l-20.8-32.1c-0.7-1.1-1.4-2.4-2.2-3.8
				c-0.2,0.9-0.6,2.1-1.2,3.6c-0.6,1.4-1.3,3.1-2.1,5.1l-10.4-4l3-8.4l16.3-9.4l27.6,42.5L816.3,293.8"/>
			<polyline style="clip-path:url(#SVGID_28_);fill:#FFFFFF;" points="782.6,254.2 783,252.9 798.3,243.9 798.9,244.8 782.6,254.2 
							"/>
			<path style="clip-path:url(#SVGID_28_);fill:#FEC800;" d="M836.9,277.2c-1.1,0-2.2-0.1-3.3-0.3c-2-0.4-3.9-1.3-5.7-2.4
				c-1.8-1.2-3.3-2.7-4.5-4.6l-11.7-18c-1.2-1.9-2-3.9-2.3-6c-0.4-2.2-0.3-4.3,0.2-6.3c0.1-0.4,0.2-0.7,0.3-1.1l8-4.6l7.4,4.3
				l-2.3,1.5c-0.9,0.6-1.5,1.5-1.8,2.5c-0.2,1.1,0,2.1,0.6,3.1l11.7,18c0.6,1,1.5,1.6,2.6,1.8c0.3,0.1,0.6,0.1,0.9,0.1
				c0.8,0,1.5-0.2,2.2-0.7l15-9.8l11.8,6.8l-20.2,13.1c-1.9,1.2-3.9,2-6,2.4C838.8,277.1,837.9,277.2,836.9,277.2"/>
			<path style="clip-path:url(#SVGID_28_);fill:#FFFFFF;" d="M865.9,261.5l-11.8-6.8l0.6-0.4l11.8,6.7L865.9,261.5 M809.9,238.4
				c0.2-0.6,0.4-1.2,0.6-1.7l6.7-3.9l8.7,5l-0.5,0.4l-7.4-4.3L809.9,238.4"/>
			<path style="clip-path:url(#SVGID_28_);fill:#F18B19;" d="M817.6,374.4V360l0.3-0.2c0.9-0.6,1.5-1.4,1.7-2.6
				c0.2-1.1,0.1-2.1-0.6-3.1l-1.5-2.3v-22.2l11.6,17.9c1.2,1.8,1.9,3.8,2.3,5.9c0.4,2.1,0.4,4.2-0.1,6.2c-0.4,2-1.2,3.9-2.4,5.7
				c-1.2,1.8-2.7,3.3-4.6,4.6L817.6,374.4"/>
			<path style="clip-path:url(#SVGID_28_);fill:#D65411;" d="M809.4,379.7l-11.7-6.8l19.9-13v14.4L809.4,379.7 M778.1,361.6
				l-15.4-8.9c0.1-0.5,0.1-0.9,0.3-1.3c0.5-2,1.3-3.9,2.4-5.7c1.2-1.8,2.6-3.2,4.5-4.4l25.4-16.5c1.8-1.2,3.7-1.9,5.9-2.3
				c0.9-0.1,1.9-0.2,2.8-0.2c1.2,0,2.3,0.1,3.4,0.3c2.1,0.4,4,1.2,5.8,2.4c1.8,1.2,3.3,2.7,4.5,4.5l0,0.1v22.2l-10.2-15.7
				c-0.6-0.9-1.5-1.6-2.6-1.8c-0.3-0.1-0.6-0.1-0.9-0.1c-0.8,0-1.5,0.2-2.2,0.7l-25.5,16.6c-0.9,0.6-1.5,1.4-1.7,2.5
				c-0.3,1.1,0,2.1,0.6,3.1L778.1,361.6"/>
			<path style="clip-path:url(#SVGID_28_);fill:#F18B19;" d="M853.6,351.2l-20.8-32c-0.7-1.1-1.4-2.4-2.2-3.8
				c-0.2,0.9-0.6,2.1-1.2,3.6c-0.6,1.4-1.3,3.1-2.1,5.1l-9.6-3.7v-2.5l3.5-9.8l13.2-8.6l29.4,45.3L853.6,351.2"/>
			<polyline style="clip-path:url(#SVGID_28_);fill:#D65411;" points="817.6,320.2 816.9,319.9 817.6,317.7 817.6,320.2 			"/>
			<path style="clip-path:url(#SVGID_28_);fill:#F18B19;" d="M879.3,334.5l-20.8-32c-0.7-1.1-1.4-2.4-2.2-3.8
				c-0.2,0.9-0.6,2.1-1.2,3.5c-0.6,1.5-1.3,3.1-2.1,5.1l-10.4-4l4.3-12l3.7-2.4l9.8-5.6l23.9,36.8v11.3L879.3,334.5"/>
			<polyline style="clip-path:url(#SVGID_28_);fill:#FFFFFF;" points="850.6,288.8 860,282.6 860.3,283.1 850.6,288.8 			"/>
			<polyline style="clip-path:url(#SVGID_28_);fill:#D65411;" points="884.2,331.3 884.2,319.9 889.4,327.9 884.2,331.3 			"/>
			<path style="clip-path:url(#SVGID_28_);fill:#F18B19;" d="M884.2,307.2l-9.5-14.7c-1.2-1.9-2-3.9-2.4-6c-0.3-2.2-0.3-4.3,0.2-6.3
				c0.5-1.9,1.2-3.7,2.3-5.4l7.9-4.5l1.5,0.9V283c-0.1,0.5-0.1,1.1,0,1.6V307.2"/>
			<path style="clip-path:url(#SVGID_28_);fill:#FFFFFF;" d="M874.9,274.8c0.1-0.1,0.1-0.2,0.2-0.3c1.2-1.8,2.7-3.2,4.4-4.4l1.4-0.9
				l1.8,1L874.9,274.8"/>
			<path style="clip-path:url(#SVGID_28_);fill:#D65411;" d="M900,317.8c-1.2,0-2.3-0.1-3.4-0.4c-2-0.4-3.9-1.2-5.7-2.4
				c-1.8-1.2-3.3-2.7-4.5-4.6l-2.1-3.3v-22.6c0.1,0.5,0.3,1,0.6,1.4l11.7,18c0.6,0.9,1.5,1.5,2.6,1.8c0.3,0.1,0.6,0.1,0.9,0.1
				c0.8,0,1.5-0.2,2.1-0.6l20.8-13.5l11.7,6.8c-0.2,0.1-0.3,0.2-0.5,0.3l-25.4,16.5c-1.9,1.2-3.8,2-6,2.4
				C901.8,317.8,900.9,317.8,900,317.8 M884.2,283v-11.9l0,0l1.5-0.9l8.3,4.8l-8.1,5.2c-0.9,0.6-1.5,1.4-1.7,2.5
				C884.3,282.9,884.2,282.9,884.2,283"/>
			<path style="clip-path:url(#SVGID_28_);fill:#FEC800;" d="M936.4,297l-11.5-6.6l2.7-1.8c0.9-0.6,1.5-1.5,1.7-2.6
				c0.2-1.1,0-2.1-0.6-3.1l-11.7-18c-0.6-1-1.5-1.6-2.6-1.8c-0.3-0.1-0.6-0.1-0.9-0.1c-0.8,0-1.5,0.2-2.2,0.6l-15.4,10l-7.4-4.3
				l30.3-17.5c1.3,0.4,2.6,1.1,3.8,1.9c1.8,1.2,3.3,2.7,4.5,4.5l11.7,18c1.2,1.8,2,3.8,2.3,5.9c0.4,2.1,0.4,4.2-0.1,6.2
				c-0.4,2-1.2,3.9-2.4,5.7C938.1,295.2,937.3,296.1,936.4,297"/>
			<path style="clip-path:url(#SVGID_28_);fill:#FFFFFF;" d="M934.7,298.4l-11.7-6.8l2-1.3l11.5,6.6
				C935.9,297.5,935.3,298,934.7,298.4 M894.1,275l-8.3-4.8l32.1-18.6c0.4,0.1,0.7,0.2,1.1,0.3l-30.3,17.5l7.4,4.3L894.1,275"/>
			<path style="clip-path:url(#SVGID_28_);fill:#FEC800;" d="M958.2,280c-1.2,0-2.3-0.1-3.4-0.3c-2-0.4-4-1.2-5.7-2.4
				c-1.8-1.2-3.3-2.7-4.5-4.6l-11.6-18c-1.2-1.9-2-3.9-2.4-6c-0.2-1.1-0.2-2.2-0.2-3.2l20.2-11.6l3.7,2.1l-10.1,6.5
				c-0.9,0.6-1.5,1.4-1.7,2.5c-0.2,1.1-0.1,2.1,0.6,3.1l11.7,18c0.6,0.9,1.5,1.5,2.6,1.8c0.3,0.1,0.6,0.1,0.9,0.1
				c0.8,0,1.5-0.2,2.1-0.7l22.8-14.8l11.5,6.6c-0.7,0.6-1.4,1.2-2.3,1.8L967,277.4c-1.9,1.2-3.9,2-6,2.4
				C960,280,959.1,280,958.2,280"/>
			<path style="clip-path:url(#SVGID_28_);fill:#FFFFFF;" d="M994.6,259.2l-11.5-6.6l0.8-0.5l11.3,6.5
				C995,258.8,994.8,259,994.6,259.2 M930.4,245.4c0-0.3,0-0.7,0.1-1l20.1-11.6l4.5,2.6l-0.8,0.5l-3.7-2.1L930.4,245.4"/>
			<polyline style="clip-path:url(#SVGID_28_);fill:#FFFFFF;" points="886.4,347.6 886,347.3 886,347.3 886.4,347.6 			"/>
			<polyline style="clip-path:url(#SVGID_28_);fill:#D65411;" points="911.6,362.1 886.4,347.6 886,347.3 897.3,340 911.6,362.1 			
				"/>
			<polyline style="clip-path:url(#SVGID_28_);fill:#F18B19;" points="950.3,369.9 950.3,365.3 952.4,368.6 950.3,369.9 			"/>
			<path style="clip-path:url(#SVGID_28_);fill:#D65411;" d="M942.3,375.1l-20.8-32.1c-0.7-1.1-1.4-2.4-2.2-3.8
				c-0.2,0.9-0.6,2.1-1.2,3.5c-0.6,1.4-1.3,3.1-2.1,5.1l-10.4-4l4.3-12l13.2-8.5l27.3,42v4.6L942.3,375.1"/>
			<polyline style="clip-path:url(#SVGID_28_);fill:#F18B19;" points="968,358.4 950.3,331.2 950.3,309 978.1,351.9 968,358.4 			
				"/>
			<path style="clip-path:url(#SVGID_28_);fill:#D65411;" d="M950.3,331.2l-3.1-4.8c-0.7-1.1-1.4-2.4-2.2-3.8
				c-0.2,0.9-0.6,2.1-1.2,3.5c-0.6,1.4-1.3,3.1-2.1,5.1l-10.4-4l4.3-12l13.2-8.6l1.6,2.4V331.2"/>
			<path style="clip-path:url(#SVGID_28_);fill:#F18B19;" d="M988.6,341.8c-1.1,0-2.2-0.1-3.3-0.4c-2-0.4-3.9-1.2-5.7-2.4
				c-1.8-1.2-3.3-2.7-4.5-4.6l-11.7-17.9c-1.2-1.9-2-3.9-2.3-6.1c-0.4-2.2-0.3-4.3,0.2-6.3c0.3-1.2,0.7-2.3,1.2-3.4l43.7-25.2
				c1.8,0.4,3.6,1.2,5.3,2.3c1.8,1.2,3.3,2.7,4.5,4.5l1,1.5V306l-11.1-17.1c-0.7-1-1.5-1.6-2.6-1.8c-0.3-0.1-0.6-0.1-0.9-0.1
				c-0.8,0-1.5,0.2-2.1,0.6l-25.5,16.6c-0.9,0.6-1.5,1.5-1.7,2.6c-0.3,1.1-0.1,2.1,0.6,3.1l11.7,18c0.6,1,1.5,1.6,2.6,1.8
				c0.3,0.1,0.6,0.1,0.9,0.1c0.7,0,1.4-0.2,2.1-0.7l25.5-16.5c0.2-0.1,0.4-0.3,0.6-0.5v14.5l-19.5,12.6c-1.9,1.2-3.8,2-6,2.4
				C990.5,341.7,989.6,341.8,988.6,341.8"/>
			<path style="clip-path:url(#SVGID_28_);fill:#FEC800;" d="M965,296.8c0.9-1,2-2,3.2-2.7l25.4-16.5c1.8-1.2,3.8-1.9,5.9-2.3
				c1-0.2,1.9-0.2,2.8-0.2c0.1,0,0.3,0,0.4,0L965,296.8"/>
			<path style="clip-path:url(#SVGID_28_);fill:#FFFFFF;" d="M962.5,300.7c0.4-0.8,0.8-1.5,1.3-2.2c0.4-0.6,0.8-1.1,1.3-1.6
				l37.7-21.7c1,0,2,0.1,3,0.3c0.2,0,0.3,0.1,0.5,0.1L962.5,300.7"/>
			<path style="clip-path:url(#SVGID_28_);fill:#D65411;" d="M1016.9,326.6v-14.5c0.6-0.6,1-1.2,1.2-2.1c0.2-1.1,0-2.1-0.6-3.1
				l-0.6-0.9v-22.2l10.7,16.5c1.2,1.8,2,3.8,2.3,5.9c0.4,2.1,0.3,4.2-0.1,6.2c-0.4,2-1.2,3.9-2.4,5.7c-1.2,1.8-2.7,3.3-4.6,4.5
				L1016.9,326.6"/>
			<path style="clip-path:url(#SVGID_28_);fill:#D65411;" d="M1046.8,304c-1.1,0-2.2-0.1-3.3-0.4c-2-0.4-3.9-1.2-5.7-2.4
				c-1.8-1.2-3.3-2.7-4.5-4.6l-11.7-17.9c-1.2-1.9-2-3.9-2.3-6.1c-0.1-0.7-0.2-1.3-0.2-2l18.7,10.8l5.6,8.6c0.6,0.9,1.5,1.6,2.6,1.8
				c0.3,0.1,0.6,0.1,0.9,0.1c0.7,0,1.4-0.2,2.1-0.7l2.8-1.8l11.7,6.8l-7.9,5.1c-1.9,1.2-3.8,2.1-6,2.4
				C1048.7,303.9,1047.8,304,1046.8,304"/>
			<path style="clip-path:url(#SVGID_28_);fill:#FEC800;" d="M1065.5,294.9l-11.7-6.8l20.7-13.4c0.9-0.6,1.5-1.5,1.7-2.6
				c0.2-1.1,0-2.1-0.6-3.1l-11.7-18c-0.6-1-1.5-1.6-2.6-1.8c-0.3-0.1-0.6-0.1-0.9-0.1c-0.8,0-1.5,0.2-2.2,0.6l-25.5,16.5
				c-0.9,0.6-1.5,1.5-1.7,2.6c-0.2,1.1-0.1,2.1,0.6,3.1l3.5,5.4l-14-8l49.6-28.6c1.3,1,2.3,2.2,3.3,3.7l11.7,18
				c1.2,1.8,2,3.8,2.3,5.9c0.4,2.1,0.4,4.2,0,6.2c-0.4,2-1.2,3.9-2.4,5.7c-1.2,1.8-2.8,3.3-4.6,4.5L1065.5,294.9"/>
			<path style="clip-path:url(#SVGID_28_);fill:#FFFFFF;" d="M1063.5,296.2l-11.7-6.8l2-1.3l11.7,6.8L1063.5,296.2 M1037.8,281.4
				l-18.7-10.8c0-0.3,0-0.5,0-0.8l51.1-29.5c0.2,0.2,0.5,0.4,0.7,0.5l-49.6,28.6l14,8L1037.8,281.4"/>
			<polyline style="clip-path:url(#SVGID_28_);fill:#FEC800;" points="1110.1,266.1 1092.6,239.2 1115.6,252.4 1120.2,259.6 
				1110.1,266.1 			"/>
			<polyline style="clip-path:url(#SVGID_28_);fill:#FFFFFF;" points="1115.6,252.4 1092.6,239.2 1091.6,237.6 1114.6,250.9 
				1115.6,252.4 			"/>
			<path style="clip-path:url(#SVGID_28_);fill:#FEC800;" d="M1083.8,238.9l-5.7-2.2l5.1-2.9l2.2,1.2
				C1084.9,236.2,1084.4,237.5,1083.8,238.9"/>
			<path style="clip-path:url(#SVGID_28_);fill:#FFFFFF;" d="M1078.1,236.7l-1-0.4l6.1-3.5l2.5,1.4c-0.1,0.3-0.2,0.5-0.3,0.8
				l-2.2-1.2L1078.1,236.7"/>
			<path style="clip-path:url(#SVGID_28_);fill:#F18B19;" d="M985.4,364.5c0.3-0.3,0.7-0.5,1.1-0.7l25.4-16.5c1.5-1,3.2-1.7,5-2.1
				v1.1L985.4,364.5"/>
			<path style="clip-path:url(#SVGID_28_);fill:#D65411;" d="M1038.7,358.9l-21.8-12.6v-1.1c0.3-0.1,0.6-0.1,0.8-0.2
				c1-0.2,1.9-0.2,2.9-0.2c1.1,0,2.2,0.1,3.4,0.3c2,0.4,4,1.2,5.8,2.4c1.8,1.2,3.3,2.7,4.5,4.5L1038.7,358.9"/>
			<path style="clip-path:url(#SVGID_28_);fill:#D65411;" d="M1070.2,373.6l-20.8-32c-0.7-1.1-1.4-2.4-2.2-3.8
				c-0.2,0.9-0.6,2.1-1.2,3.5c-0.6,1.4-1.3,3.1-2.1,5.1l-10.4-4l4.3-12l13.2-8.6l29.4,45.3L1070.2,373.6"/>
			<path style="clip-path:url(#SVGID_28_);fill:#F18B19;" d="M1090.8,357c-1.1,0-2.2-0.1-3.3-0.4c-1.6-0.3-3.1-0.9-4.5-1.7v-18.7
				l4.4,6.8c0.6,1,1.5,1.6,2.6,1.8c0.3,0.1,0.6,0.1,0.9,0.1c0.7,0,1.4-0.2,2.1-0.7l25.5-16.5c0.9-0.6,1.5-1.4,1.8-2.5
				c0.2-1.1,0-2.1-0.6-3.1l-11.7-18c-0.6-1-1.5-1.5-2.6-1.8c-0.3-0.1-0.6-0.1-0.8-0.1c-0.8,0-1.5,0.2-2.2,0.6l-19.4,12.6v-8.1
				l0.3,0.1l27.8-16c0.9,0.4,1.8,0.9,2.7,1.4c1.8,1.2,3.3,2.7,4.5,4.5l11.6,18c1.2,1.8,1.9,3.8,2.3,5.9c0.4,2.1,0.4,4.2-0.1,6.2
				c-0.4,2-1.2,4-2.4,5.8c-1.2,1.8-2.7,3.3-4.6,4.5l-25.4,16.5c-1.9,1.2-3.9,2-6,2.4C1092.7,356.9,1091.8,357,1090.8,357"/>
			<path style="clip-path:url(#SVGID_28_);fill:#D65411;" d="M1082.9,354.9c-0.4-0.2-0.8-0.5-1.2-0.7c-1.8-1.2-3.3-2.7-4.5-4.6
				l-11.7-17.9c-1.2-1.9-2-3.9-2.3-6.1c-0.3-2.2-0.2-4.2,0.2-6.3c0.4-2,1.3-3.9,2.5-5.7c1.1-1.8,2.6-3.2,4.4-4.4l7.4-4.8l5.1,3v8.1
				l-6,3.9c-0.9,0.6-1.5,1.5-1.7,2.6c-0.2,1.1,0,2.1,0.6,3.1l7.2,11.1V354.9"/>
			<path style="clip-path:url(#SVGID_28_);fill:#FEC800;" d="M1083.2,305.1l-3.4-2l16-10.4c1.8-1.2,3.8-1.9,5.9-2.2
				c1-0.2,1.9-0.2,2.9-0.2c1.1,0,2.3,0.1,3.4,0.3c0.1,0,0.2,0,0.4,0.1L1083.2,305.1"/>
			<path style="clip-path:url(#SVGID_28_);fill:#FFFFFF;" d="M1083.2,307.6l-0.3-0.1l-5.1-3l2-1.3l3.4,2l25-14.4
				c0.9,0.2,1.8,0.5,2.7,0.9L1083.2,307.6"/>
			<polyline style="clip-path:url(#SVGID_28_);fill:#FFFFFF;" points="1149.5,312.1 1149.5,312.1 1149.5,289.9 1149.5,289.9 
				1149.5,312.1 			"/>
			<path style="clip-path:url(#SVGID_28_);fill:#F18B19;" d="M1149.5,312.1l-16.2-25c-0.7-1.1-1.4-2.4-2.2-3.8
				c-0.2,0.9-0.6,2.1-1.2,3.5c-0.6,1.4-1.3,3.1-2.1,5.1l-10.4-4l22.4-12.9l9.7,14.9V312.1"/>
			<polyline style="clip-path:url(#SVGID_28_);fill:#FEC800;" points="1118.5,284.8 1121.7,275.8 1134.8,267.3 1138.7,273.2 
				1118.5,284.8 			"/>
			<polyline style="clip-path:url(#SVGID_28_);fill:#FFFFFF;" points="1117.4,287.9 1117.4,287.9 1118.5,284.8 1138.7,273.2 
				1139.8,275 1117.4,287.9 			"/>
			<polyline style="clip-path:url(#SVGID_28_);fill:#FFFFFF;" points="1149.6,273.7 1149.5,273.6 1149.5,271.1 1149.6,271.1 
				1149.6,273.7 			"/>
			<polyline style="clip-path:url(#SVGID_28_);fill:#F18B19;" points="1149.5,273.6 1145.1,271.9 1148,270.2 1149.5,271.1 
				1149.5,273.6 			"/>
			<polyline style="clip-path:url(#SVGID_28_);fill:#FEC800;" points="1143.4,270.5 1144,268.8 1145.1,269.5 1143.4,270.5 			"/>
			<polyline style="clip-path:url(#SVGID_28_);fill:#FFFFFF;" points="1145.1,271.9 1143.1,271.2 1143.4,270.5 1145.1,269.5 
				1144,268.8 1144.2,268 1148,270.2 1145.1,271.9 			"/>
			<path style="clip-path:url(#SVGID_28_);fill:#F18B19;" d="M1101.6,374c0.4-1,1-2,1.6-3c1.2-1.7,2.6-3.2,4.5-4.4l25.4-16.5
				c1.8-1.2,3.8-1.9,5.9-2.3c0.9-0.1,1.9-0.2,2.8-0.2c1.2,0,2.3,0.1,3.5,0.3c0.4,0.1,0.7,0.2,1.1,0.3L1101.6,374"/>
		</g>
	</g>
</g>
</svg>
